<svg width="442" height="368" viewBox="0 0 442 368" fill="none" xmlns="http://www.w3.org/2000/svg">
  <path d="M247.669 179.593C246.735 181.838 245.93 184.14 244.845 186.315C234.46 207.105 223.178 227.49 215.442 249.506C210.576 263.342 207.274 277.503 208.149 292.3C208.884 304.887 211.93 316.676 221.007 326.163C232.629 338.31 251.052 340.462 267.154 331.242C289.802 318.273 309.602 301.694 326.066 281.587C371.022 226.633 401.872 164.426 420.389 96.041C422.583 87.9426 422.875 79.7748 420.366 71.5838C418.814 66.5166 420.658 63.6011 426.445 60.8593C430.237 59.066 433.364 60.0726 436.211 64.1449C441.718 72.0003 442.243 80.6772 440.435 89.759C435.196 116.056 425.453 140.825 414.684 165.248C399.69 199.249 382.853 232.279 359.868 261.711C336.263 291.93 310.01 319.557 277.235 340.219C254.541 354.53 230.027 364.144 203.19 366.585C127.477 373.492 69.359 344.141 28.4745 280.65C14.2746 258.599 5.83867 234.176 2.29161 208.215C-8.03453 132.97 31.6832 54.2301 98.9489 20.0318C119.788 9.42288 141.829 2.82848 165.211 0.850156C223.703 -4.10143 272.696 15.6702 313.289 57.3422C314.199 58.2793 315.016 59.3206 315.879 60.3155C317.711 62.4211 317.618 64.3647 315.273 65.9728C299.346 76.9056 287.783 91.934 276.442 107.147C252.417 139.379 225.955 169.563 198.617 198.995C180.975 217.991 163.064 236.756 144.932 255.302C139.262 261.109 132.739 266.177 126.147 270.955C122.868 273.338 118.679 275.039 114.666 275.71C108.54 276.739 105.436 272.146 108.785 266.94C115.179 257.002 121.468 246.856 129.076 237.867C150.078 213.04 171.5 188.583 190.111 161.858C199.06 149.016 208.021 136.174 216.737 123.171C227.681 106.847 231.24 88.7871 228.521 69.432C227.868 64.7696 226.981 60.142 226.083 55.5143C223.889 44.2691 216.725 37.478 206.049 34.3891C195.466 31.3233 184.627 31.0803 173.612 31.6935C151.105 32.9314 129.904 39.144 109.065 47.1036C105.553 48.4456 102.601 48.2142 100.757 44.4311C99.6373 42.1288 97.8871 41.8859 95.8569 43.0775C80.7586 51.9163 65.4036 60.3618 50.6786 69.7791C41.9043 75.3901 36.6304 84.1711 33.9701 94.375C30.9714 105.921 27.7277 117.409 24.8458 128.978C23.994 132.38 23.749 135.978 23.679 139.495C23.5273 147.547 28.7779 150.613 35.977 146.783C44.4596 142.271 52.8605 137.597 61.3781 133.132C85.0524 120.741 108.68 108.258 132.506 96.1451C143.077 90.7655 154.302 86.7741 166.121 85.1197C171.419 84.3793 176.961 84.1364 182.235 84.8189C191.919 86.0568 196.948 95.6939 191.721 103.943C184.638 115.142 177.113 126.213 168.525 136.278C153.672 153.69 137.651 170.118 122.495 187.275C103.558 208.713 86.5575 231.678 70.8292 255.533C63.42 266.767 61.6581 279.62 62.93 292.959C63.8517 302.654 66.3837 311.794 71.5992 320.054C79.1951 332.086 89.6379 335.025 102.461 328.754C113.335 323.432 122.752 316.04 131.502 307.779C161.536 279.435 188.489 248.279 215.162 216.857C225.791 204.34 236.374 191.787 246.98 179.246C247.19 179.362 247.412 179.466 247.622 179.582L247.669 179.593Z" fill="#0079BE" fill-opacity="0.07"/>
</svg>
