<svg width="825" height="1129" viewBox="0 0 825 1129" fill="none" xmlns="http://www.w3.org/2000/svg">
  <path opacity="0.1" d="M857.937 1003.79C729.505 1081.21 643.795 995.1 652.153 862.516C655.736 806.297 682.669 740.334 706.418 689.118C728.841 640.666 758.959 594.848 776.207 544.553C687.313 643.695 603.991 747.839 512.045 844.347C464.812 893.852 377.377 987.464 314.753 1011.29C206.886 1052.24 182.872 892.14 204.233 819.99C219.756 767.588 322.449 643.299 361.987 597.086C425.407 522.302 499.972 456.866 559.013 378.659C580.905 349.562 634.109 290.709 588.601 262.139C547.205 236.333 452.606 272.935 410.68 291.368C306.527 337.186 207.55 399.33 105.653 449.888C71.8202 460.421 71.5549 426.058 74.7391 402.49C78.8521 370.76 107.909 270.17 124.626 244.364C159.653 190.251 250.139 158.916 304.139 125.474C316.213 123.762 313.029 145.355 335.716 142.195C349.25 140.22 381.358 125.21 397.942 120.339C484.714 94.6648 678.025 50.2948 708.276 169.054C738.526 287.944 698.325 345.612 634.507 437.907C588.07 504.923 538.448 570.754 485.908 633.293C441.991 685.563 390.778 733.488 354.424 791.682C343.412 809.193 316.346 848.429 358.272 846.717C395.422 845.269 471.181 768.115 498.512 740.729C604.257 634.215 713.849 515.324 808.581 399.462C857.406 339.951 901.986 269.643 960.099 219.217C970.846 209.869 985.307 203.286 994.462 191.831C995.258 188.54 992.605 183.537 988.359 177.743C988.359 177.743 988.359 177.743 988.094 177.48C984.246 173.399 980.266 169.317 976.153 165.367C873.195 63.1977 730.964 0 573.873 0H479.274C298.169 29.2289 132.056 145.223 49.3977 331.524C-111.806 694.384 142.538 1091.08 508.33 1129H573.873C640.212 1129 703.898 1117.68 762.939 1097.01C763.603 1096.74 764.133 1096.61 764.93 1096.35C803.539 1082 841.087 1063.04 877.042 1040.26C883.411 1036.31 889.779 1032.1 896.015 1027.88C914.988 1015.11 933.563 1001.16 951.74 986.41C952.005 986.147 952.271 986.015 952.536 985.752C1027.5 919.394 1084.68 833.551 1116 736.253C1042.62 847.112 954.659 945.463 857.804 1003.79H857.937ZM1104.58 360.622C1095.16 336.133 1083.89 312.828 1071.28 290.183C1061.86 310.195 1047.67 329.286 1035.46 349.43C954.261 483.857 858.069 613.017 791.598 755.739C780.055 780.623 755.907 830.259 754.581 856.065C752.856 887.795 777.667 894.115 803.539 884.504C880.492 856.328 981.062 728.09 1028.96 662.391C1060.67 618.81 1123.16 538.497 1128.33 487.017C1133.64 435.801 1105.51 403.675 1104.45 360.753L1104.58 360.622Z" fill="white"/>
</svg>

