<svg width="226" height="57" viewBox="0 0 226 57" fill="none" xmlns="http://www.w3.org/2000/svg">
<g opacity="0.21">
<path d="M9.83496 1.97562H8.23828V0.189453H9.83496V1.97562Z" fill="#0095E6"/>
<path d="M14.9498 1.55851H13.9766V0.605469H14.9498V1.55851Z" fill="#0095E6"/>
<path d="M47.7571 1.85447H46.2812V0.314453H47.7571V1.85447Z" fill="#0095E6"/>
<path d="M69.5097 1.71107H67.9258V0.455078H69.5097V1.71107Z" fill="#0095E6"/>
<path d="M74.5687 1.50154H73.7227V0.662109H74.5687V1.50154Z" fill="#0095E6"/>
<path d="M80.3824 1.19837H78.7539V0.964844H80.3824V1.19837Z" fill="#0095E6"/>
<path d="M90.7887 1.34417H90.0508V0.820312H90.7887V1.34417Z" fill="#0095E6"/>
<path d="M118.614 1.43781H116.477V0.724609H118.614V1.43781Z" fill="#0095E6"/>
<path d="M123.122 1.38235H122.816V0.789062H123.122V1.38235Z" fill="#0095E6"/>
<path d="M130.331 1.90031H126.457V0.265625H130.331V1.90031Z" fill="#0095E6"/>
<path d="M139.726 1.14817H138.766V1.01562H139.726V1.14817Z" fill="#0095E6"/>
<path d="M145.583 1.57835H143.758V0.59375H145.583V1.57835Z" fill="#0095E6"/>
<path d="M166.876 1.55851H165.871V0.605469H166.876V1.55851Z" fill="#0095E6"/>
<path d="M171.87 1.433H171.73V0.732422H171.87V1.433Z" fill="#0095E6"/>
<path d="M178.326 2.39273H176.125V-0.226562H178.326V2.39273Z" fill="#0095E6"/>
<path d="M183.328 2.10113H181.973V0.0625H183.328V2.10113Z" fill="#0095E6"/>
<path d="M194.344 2.02582H192.652V0.138672H194.344V2.02582Z" fill="#0095E6"/>
<path d="M210.979 1.87521H208.574V0.291016H210.979V1.87521Z" fill="#0095E6"/>
<path d="M41.7615 5.017H41.418V4.91602H41.7615V5.017Z" fill="#0095E6"/>
<path d="M49.0928 6.6202H44.9453V3.30664H49.0928V6.6202Z" fill="#0095E6"/>
<path d="M52.7087 5.22653H52.168V4.70898H52.7087V5.22653Z" fill="#0095E6"/>
<path d="M101.824 5.5031H100.711V4.42383H101.824V5.5031Z" fill="#0095E6"/>
<path d="M112.335 5.06766H111.902V4.85938H112.335V5.06766Z" fill="#0095E6"/>
<path d="M123.117 5.53451H122.824V4.39844H123.117V5.53451Z" fill="#0095E6"/>
<path d="M134.356 5.60501H133.281V4.33008H134.356V5.60501Z" fill="#0095E6"/>
<path d="M139.867 5.14972H138.633V4.77734H139.867V5.14972Z" fill="#0095E6"/>
<path d="M150.522 5.14972H149.676V4.77734H150.522V5.14972Z" fill="#0095E6"/>
<path d="M177.828 6.32379H176.613V3.60352H177.828V6.32379Z" fill="#0095E6"/>
<path d="M184.229 6.74044H181.074V3.19336H184.229V6.74044Z" fill="#0095E6"/>
<path d="M201.043 6.41217H196.812V3.52148H201.043V6.41217Z" fill="#0095E6"/>
<path d="M215.844 5.28831H214.559V4.64453H215.844V5.28831Z" fill="#0095E6"/>
<path d="M226.848 5.49153H225.258V4.4375H226.848V5.49153Z" fill="#0095E6"/>
<path d="M15.5942 9.42214H13.3359V8.27344H15.5942V9.42214Z" fill="#0095E6"/>
<path d="M43.1669 10.2365H40.0117V7.45312H43.1669V10.2365Z" fill="#0095E6"/>
<path d="M47.2917 8.87997H46.7383V8.81055H47.2917V8.87997Z" fill="#0095E6"/>
<path d="M54.0459 9.21456H50.8398V8.48242H54.0459V9.21456Z" fill="#0095E6"/>
<path d="M86.8468 9.44724H83.1445V8.24805H86.8468V9.44724Z" fill="#0095E6"/>
<path d="M96.1247 8.97557H95.5586V8.7168H96.1247V8.97557Z" fill="#0095E6"/>
<path d="M139.745 9.11265H138.746V8.57617H139.745V9.11265Z" fill="#0095E6"/>
<path d="M145.49 9.66353H143.855V8.03516H145.49V9.66353Z" fill="#0095E6"/>
<path d="M151.003 9.10784H149.184V8.58398H151.003V9.10784Z" fill="#0095E6"/>
<path d="M156.801 9.454H154.25V8.24219H156.801V9.454Z" fill="#0095E6"/>
<path d="M166.449 9.01179H166.297V8.68359H166.449V9.01179Z" fill="#0095E6"/>
<path d="M178.236 9.1827H176.207V8.51367H178.236V9.1827Z" fill="#0095E6"/>
<path d="M188.67 9.06921H187.48V8.62109H188.67V9.06921Z" fill="#0095E6"/>
<path d="M205.425 9.46077H203.281V8.23633H205.425V9.46077Z" fill="#0095E6"/>
<path d="M227.02 9.7958H225.086V7.90234H227.02V9.7958Z" fill="#0095E6"/>
<path d="M9.35733 13.1524H8.71484V12.3066H9.35733V13.1524Z" fill="#0095E6"/>
<path d="M30.9187 12.9265H30.5625V12.5352H30.9187V12.9265Z" fill="#0095E6"/>
<path d="M58.4032 13.134H57.3281V12.3262H58.4032V13.134Z" fill="#0095E6"/>
<path d="M96.5278 13.1157H95.1602V12.3457H96.5278V13.1157Z" fill="#0095E6"/>
<path d="M113.658 13.4759H110.586V11.9863H113.658V13.4759Z" fill="#0095E6"/>
<path d="M124.318 12.9699H121.621V12.4902H124.318V12.9699Z" fill="#0095E6"/>
<path d="M134.427 14.2077H133.219V11.2539H134.427V14.2077Z" fill="#0095E6"/>
<path d="M150.494 13.5309H149.699V11.9277H150.494V13.5309Z" fill="#0095E6"/>
<path d="M155.724 12.9767H155.316V12.4844H155.724V12.9767Z" fill="#0095E6"/>
<path d="M161.302 13.0703H160.59V12.3887H161.302V13.0703Z" fill="#0095E6"/>
<path d="M188.949 13.2345H187.199V12.2246H188.949V13.2345Z" fill="#0095E6"/>
<path d="M204.827 13.1089H203.879V12.3516H204.827V13.1089Z" fill="#0095E6"/>
<path d="M211.317 12.8627H208.238V12.5977H211.317V12.8627Z" fill="#0095E6"/>
<path d="M227.11 13.1476H224.992V12.3145H227.11V13.1476Z" fill="#0095E6"/>
<path d="M3.91436 16.9328H3.31641V16.2891H3.91436V16.9328Z" fill="#0095E6"/>
<path d="M14.8753 17.0217H14.0547V16.2012H14.8753V17.0217Z" fill="#0095E6"/>
<path d="M36.3421 16.6997H35.9922V16.5293H36.3421V16.6997Z" fill="#0095E6"/>
<path d="M49.4646 17.4383H44.5664V15.791H49.4646V17.4383Z" fill="#0095E6"/>
<path d="M71.2908 18.4921H66.1445V14.7305H71.2908V18.4921Z" fill="#0095E6"/>
<path d="M101.648 16.7822H100.891V16.4414H101.648V16.7822Z" fill="#0095E6"/>
<path d="M150.387 16.7687H149.809V16.4531H150.387V16.7687Z" fill="#0095E6"/>
<path d="M178.595 17.7487H175.859V15.4766H178.595V17.7487Z" fill="#0095E6"/>
<path d="M189.904 16.8392H186.246V16.3848H189.904V16.8392Z" fill="#0095E6"/>
<path d="M204.878 17.7666H203.828V15.4629H204.878V17.7666Z" fill="#0095E6"/>
<path d="M209.885 16.7639H209.676V16.4609H209.885V16.7639Z" fill="#0095E6"/>
<path d="M20.204 20.7085H19.5742V20.2793H20.204V20.7085Z" fill="#0095E6"/>
<path d="M31.8465 21.7431H29.6328V19.25H31.8465V21.7431Z" fill="#0095E6"/>
<path d="M64.13 21.6224H62.457V19.3691H64.13V21.6224Z" fill="#0095E6"/>
<path d="M68.9238 21.2642H68.5039V19.7305H68.9238V21.2642Z" fill="#0095E6"/>
<path d="M74.8286 21.4466H73.4609V19.5469H74.8286V21.4466Z" fill="#0095E6"/>
<path d="M129.009 20.7196H127.781V20.2715H129.009V20.7196Z" fill="#0095E6"/>
<path d="M150.605 20.8408H149.594V20.1465H150.605V20.8408Z" fill="#0095E6"/>
<path d="M155.622 20.8224H155.426V20.166H155.622V20.8224Z" fill="#0095E6"/>
<path d="M161.373 20.9108H160.527V20.084H161.373V20.9108Z" fill="#0095E6"/>
<path d="M177.512 20.7587H176.934V20.2285H177.512V20.7587Z" fill="#0095E6"/>
<path d="M183.008 20.5308H182.289V20.4551H183.008V20.5308Z" fill="#0095E6"/>
<path d="M199.501 20.9407H198.344V20.0508H199.501V20.9407Z" fill="#0095E6"/>
<path d="M215.533 20.5555H214.871V20.4355H215.533V20.5555Z" fill="#0095E6"/>
<path d="M220.882 20.8586H220.367V20.1328H220.882V20.8586Z" fill="#0095E6"/>
<path d="M3.91927 24.5522H3.30859V24.2051H3.91927V24.5522Z" fill="#0095E6"/>
<path d="M10.0502 26.0729H8.02734V22.6836H10.0502V26.0729Z" fill="#0095E6"/>
<path d="M15.2421 25.1383H13.6836V23.6172H15.2421V25.1383Z" fill="#0095E6"/>
<path d="M21.863 25.8952H17.9062V22.8594H21.863V25.8952Z" fill="#0095E6"/>
<path d="M25.6744 24.5319H24.9492V24.2227H25.6744V24.5319Z" fill="#0095E6"/>
<path d="M30.9374 24.6212H30.543V24.1289H30.9374V24.6212Z" fill="#0095E6"/>
<path d="M42.1136 24.4634H41.0703V24.293H42.1136V24.4634Z" fill="#0095E6"/>
<path d="M58.1756 24.9176H57.5586V23.832H58.1756V24.9176Z" fill="#0095E6"/>
<path d="M64.8078 25.2271H61.7734V23.5293H64.8078V25.2271Z" fill="#0095E6"/>
<path d="M107.203 25.2203H106.191V23.5352H107.203V25.2203Z" fill="#0095E6"/>
<path d="M123.251 25.0745H122.691V23.6797H123.251V25.0745Z" fill="#0095E6"/>
<path d="M128.548 24.4634H128.242V24.293H128.548V24.4634Z" fill="#0095E6"/>
<path d="M141.062 25.5554H137.43V23.2012H141.062V25.5554Z" fill="#0095E6"/>
<path d="M145.796 26.0343H143.551V22.7207H145.796V26.0343Z" fill="#0095E6"/>
<path d="M150.991 24.9626H149.203V23.7949H150.991V24.9626Z" fill="#0095E6"/>
<path d="M166.927 25.6558H165.82V23.0996H166.927V25.6558Z" fill="#0095E6"/>
<path d="M172.385 24.5203H171.215V24.2363H172.385V24.5203Z" fill="#0095E6"/>
<path d="M184.121 24.6459H181.176V24.1094H184.121V24.6459Z" fill="#0095E6"/>
<path d="M33.0803 29.6071H28.3984V26.9121H33.0803V29.6071Z" fill="#0095E6"/>
<path d="M48.2582 28.7111H45.7773V27.8086H48.2582V28.7111Z" fill="#0095E6"/>
<path d="M53.761 29.5637H51.1211V26.957H53.761V29.5637Z" fill="#0095E6"/>
<path d="M69.2572 28.547H68.1758V27.9727H69.2572V28.547Z" fill="#0095E6"/>
<path d="M86.2397 28.6991H83.7461V27.8281H86.2397V28.6991Z" fill="#0095E6"/>
<path d="M90.8794 28.6976H89.957V27.8203H90.8794V28.6976Z" fill="#0095E6"/>
<path d="M106.907 28.49H106.48V28.0293H106.907V28.49Z" fill="#0095E6"/>
<path d="M118.099 28.8116H116.992V27.707H118.099V28.8116Z" fill="#0095E6"/>
<path d="M140.097 29.3677H138.398V27.1523H140.097V29.3677Z" fill="#0095E6"/>
<path d="M199.535 28.7362H198.32V27.7832H199.535V28.7362Z" fill="#0095E6"/>
<path d="M205.038 28.5856H203.664V27.9355H205.038V28.5856Z" fill="#0095E6"/>
<path d="M15.1999 32.4665H13.7305V31.8164H15.1999V32.4665Z" fill="#0095E6"/>
<path d="M37.3469 32.9266H34.9805V31.3613H37.3469V32.9266Z" fill="#0095E6"/>
<path d="M48.8192 33.1043H45.2188V31.1855H48.8192V33.1043Z" fill="#0095E6"/>
<path d="M58.3772 32.5167H57.3594V31.7656H58.3772V32.5167Z" fill="#0095E6"/>
<path d="M86.0681 33.3557H83.918V30.9258H86.0681V33.3557Z" fill="#0095E6"/>
<path d="M98.1745 32.3772H93.5117V31.9102H98.1745V32.3772Z" fill="#0095E6"/>
<path d="M113.524 32.3912H110.719V31.8926H113.524V32.3912Z" fill="#0095E6"/>
<path d="M119.222 32.6123H115.863V31.6719H119.222V32.6123Z" fill="#0095E6"/>
<path d="M139.473 32.7697H139.027V31.5137H139.473V32.7697Z" fill="#0095E6"/>
<path d="M150.967 32.2888H149.23V31.9922H150.967V32.2888Z" fill="#0095E6"/>
<path d="M161.914 32.3338H159.98V31.9551H161.914V32.3338Z" fill="#0095E6"/>
<path d="M172.409 32.5737H171.188V31.709H172.409V32.5737Z" fill="#0095E6"/>
<path d="M188.582 32.7378H187.57V31.5449H188.582V32.7378Z" fill="#0095E6"/>
<path d="M221.082 32.7378H220.172V31.5449H221.082V32.7378Z" fill="#0095E6"/>
<path d="M226.843 32.4414H225.266V31.8418H226.843V32.4414Z" fill="#0095E6"/>
<path d="M16.3131 37.1178H12.6172V34.9277H16.3131V37.1178Z" fill="#0095E6"/>
<path d="M20.5561 36.1847H19.2266V35.8691H20.5561V36.1847Z" fill="#0095E6"/>
<path d="M36.4465 36.3425H35.8867V35.7051H36.4465V36.3425Z" fill="#0095E6"/>
<path d="M63.8937 36.2218H62.6914V35.8242H63.8937V36.2218Z" fill="#0095E6"/>
<path d="M91.0947 36.4425H89.7461V35.6094H91.0947V36.4425Z" fill="#0095E6"/>
<path d="M101.648 36.8596H100.891V35.1934H101.648V36.8596Z" fill="#0095E6"/>
<path d="M130.152 36.9986H126.641V35.0547H130.152V36.9986Z" fill="#0095E6"/>
<path d="M156.553 36.8712H154.492V35.1797H156.553V36.8712Z" fill="#0095E6"/>
<path d="M162.925 37.4911H158.969V34.5625H162.925V37.4911Z" fill="#0095E6"/>
<path d="M184.047 37.0107H181.254V35.0352H184.047V37.0107Z" fill="#0095E6"/>
<path d="M188.35 36.7891H187.797V35.2617H188.35V36.7891Z" fill="#0095E6"/>
<path d="M199.299 36.1832H198.555V35.8613H199.299V36.1832Z" fill="#0095E6"/>
<path d="M37.4626 40.4508H34.8672V39.3652H37.4626V40.4508Z" fill="#0095E6"/>
<path d="M43.4852 41.2966H39.6875V38.5195H43.4852V41.2966Z" fill="#0095E6"/>
<path d="M48.8751 40.9046H45.1602V38.9102H48.8751V40.9046Z" fill="#0095E6"/>
<path d="M53.0397 40.8544H51.8438V38.9609H53.0397V40.8544Z" fill="#0095E6"/>
<path d="M58.8435 40.0472H56.8906V39.7695H58.8435V40.0472Z" fill="#0095E6"/>
<path d="M63.6661 39.9835H62.9219V39.832H63.6661V39.9835Z" fill="#0095E6"/>
<path d="M69.2959 40.0337H68.1445V39.7812H69.2959V40.0337Z" fill="#0095E6"/>
<path d="M75.8148 41.2464H72.4688V38.5703H75.8148V41.2464Z" fill="#0095E6"/>
<path d="M79.789 39.9584H79.3438V39.8574H79.789V39.9584Z" fill="#0095E6"/>
<path d="M91.7052 40.3552H89.1289V39.459H91.7052V40.3552Z" fill="#0095E6"/>
<path d="M101.787 40.9365H100.75V38.8789H101.787V40.9365Z" fill="#0095E6"/>
<path d="M107.282 40.5648H106.105V39.252H107.282V40.5648Z" fill="#0095E6"/>
<path d="M134.135 40.1795H133.512V39.6367H134.135V40.1795Z" fill="#0095E6"/>
<path d="M141.004 40.5696H137.492V39.2441H141.004V40.5696Z" fill="#0095E6"/>
<path d="M145.94 40.5512H143.402V39.2637H145.94V40.5512Z" fill="#0095E6"/>
<path d="M151.426 40.8158H148.773V38.998H151.426V40.8158Z" fill="#0095E6"/>
<path d="M161.251 40.501H160.641V39.3145H161.251V40.501Z" fill="#0095E6"/>
<path d="M166.909 40.3803H165.84V39.4336H166.909V40.3803Z" fill="#0095E6"/>
<path d="M182.976 40.1727H182.32V39.6426H182.976V40.1727Z" fill="#0095E6"/>
<path d="M194.026 40.8612H192.977V38.9551H194.026V40.8612Z" fill="#0095E6"/>
<path d="M210.126 40.052H209.426V39.7617H210.126V40.052Z" fill="#0095E6"/>
<path d="M4.30718 43.8962H2.91406V43.6816H4.30718V43.8962Z" fill="#0095E6"/>
<path d="M9.65105 44.2496H8.42969V43.3281H9.65105V44.2496Z" fill="#0095E6"/>
<path d="M14.7321 43.9344H14.1914V43.6504H14.7321V43.9344Z" fill="#0095E6"/>
<path d="M26.0638 44.3452H24.5625V43.2344H26.0638V44.3452Z" fill="#0095E6"/>
<path d="M47.4883 45.2914H46.5469V42.2871H47.4883V45.2914Z" fill="#0095E6"/>
<path d="M79.7979 44.2882H79.3398V43.291H79.7979V44.2882Z" fill="#0095E6"/>
<path d="M85.8082 43.9464H84.1797V43.6309H85.8082V43.9464Z" fill="#0095E6"/>
<path d="M129.976 44.3249H126.82V43.252H129.976V44.3249Z" fill="#0095E6"/>
<path d="M134.261 44.2062H133.383V43.373H134.261V44.2062Z" fill="#0095E6"/>
<path d="M141.393 45.1775H137.105V42.4004H141.393V45.1775Z" fill="#0095E6"/>
<path d="M155.616 44.042H155.426V43.5371H155.616V44.042Z" fill="#0095E6"/>
<path d="M161.311 44.5412H160.586V43.0391H161.311V44.5412Z" fill="#0095E6"/>
<path d="M172.107 44.0855H171.496V43.4922H172.107V44.0855Z" fill="#0095E6"/>
<path d="M188.542 44.0922H187.613V43.4863H188.542V44.0922Z" fill="#0095E6"/>
<path d="M199.018 44.0536H198.828V43.5234H199.018V44.0536Z" fill="#0095E6"/>
<path d="M204.705 43.8707H203.992V43.7129H204.705V43.8707Z" fill="#0095E6"/>
<path d="M217.314 44.591H213.09V42.9941H217.314V44.591Z" fill="#0095E6"/>
<path d="M221.895 44.042H219.363V43.5371H221.895V44.042Z" fill="#0095E6"/>
<path d="M14.5412 47.7651H14.3828V47.582H14.5412V47.7651Z" fill="#0095E6"/>
<path d="M21.173 48.9579H18.6094V46.3828H21.173V48.9579Z" fill="#0095E6"/>
<path d="M36.5485 47.8978H35.7852V47.4434H36.5485V47.8978Z" fill="#0095E6"/>
<path d="M42.2788 48.4786H40.8984V46.8691H42.2788V48.4786Z" fill="#0095E6"/>
<path d="M47.3167 47.8607H46.7188V47.4883H47.3167V47.8607Z" fill="#0095E6"/>
<path d="M52.8121 47.9934H52.0742V47.3496H52.8121V47.9934Z" fill="#0095E6"/>
<path d="M63.9109 48.4539H62.6641V46.8887H63.9109V48.4539Z" fill="#0095E6"/>
<path d="M91.0947 48.0499H89.7461V47.2988H91.0947V48.0499Z" fill="#0095E6"/>
<path d="M97.794 49.2558H93.8945V46.0938H97.794V49.2558Z" fill="#0095E6"/>
<path d="M117.795 47.8858H117.305V47.4629H117.795V47.8858Z" fill="#0095E6"/>
<path d="M134.817 48.3149H132.832V47.0273H134.817V48.3149Z" fill="#0095E6"/>
<path d="M150.967 48.5471H149.23V46.7988H150.967V48.5471Z" fill="#0095E6"/>
<path d="M156.194 48.4723H154.852V46.8691H156.194V48.4723Z" fill="#0095E6"/>
<path d="M162.582 49.5073H159.312V45.834H162.582V49.5073Z" fill="#0095E6"/>
<path d="M167.442 48.4288H165.305V46.9141H167.442V48.4288Z" fill="#0095E6"/>
<path d="M172.427 48.3583H171.168V46.9824H172.427V48.3583Z" fill="#0095E6"/>
<path d="M194.351 48.7185H192.652V46.623H194.351V48.7185Z" fill="#0095E6"/>
<path d="M204.427 48.0499H204.281V47.2988H204.427V48.0499Z" fill="#0095E6"/>
<path d="M216.901 48.7503H213.504V46.5918H216.901V48.7503Z" fill="#0095E6"/>
<path d="M226.711 47.9982H225.395V47.3418H226.711V47.9982Z" fill="#0095E6"/>
<path d="M9.57505 52.5308H8.5V50.5742H9.57505V52.5308Z" fill="#0095E6"/>
<path d="M26.3511 51.7232H24.2773V51.3887H26.3511V51.7232Z" fill="#0095E6"/>
<path d="M32.9273 51.8491H28.5508V51.2559H32.9273V51.8491Z" fill="#0095E6"/>
<path d="M42.1459 51.8941H41.0391V51.2188H42.1459V51.8941Z" fill="#0095E6"/>
<path d="M69.7922 52.1132H67.6484V50.9961H69.7922V52.1132Z" fill="#0095E6"/>
<path d="M74.4653 52.2088H73.8164V50.9023H74.4653V52.2088Z" fill="#0095E6"/>
<path d="M92.2029 52.246H88.6406V50.8574H92.2029V52.246Z" fill="#0095E6"/>
<path d="M97.3786 51.867H94.3125V51.2422H97.3786V51.867Z" fill="#0095E6"/>
<path d="M118.461 52.1451H116.629V50.9648H118.461V52.1451Z" fill="#0095E6"/>
<path d="M139.524 51.8559H138.977V51.25H139.524V51.8559Z" fill="#0095E6"/>
<path d="M155.688 51.7029H155.363V51.4062H155.688V51.7029Z" fill="#0095E6"/>
<path d="M162.32 52.7012H159.578V50.4102H162.32V52.7012Z" fill="#0095E6"/>
<path d="M183.58 52.0702H181.723V51.0352H183.58V52.0702Z" fill="#0095E6"/>
<path d="M193.97 52.1403H193.035V50.9727H193.97V52.1403Z" fill="#0095E6"/>
<path d="M211.094 52.455H208.461V50.6562H211.094V52.455Z" fill="#0095E6"/>
<path d="M27.2666 56.7028H23.3672V54.1719H27.2666V56.7028Z" fill="#0095E6"/>
<path d="M41.8448 55.8638H41.3359V55.0117H41.8448V55.8638Z" fill="#0095E6"/>
<path d="M47.9571 56.5633H46.0742V54.3164H47.9571V56.5633Z" fill="#0095E6"/>
<path d="M59.688 56.4132H56.043V54.4629H59.688V56.4132Z" fill="#0095E6"/>
<path d="M86.7497 56.8988H83.2383V53.9766H86.7497V56.8988Z" fill="#0095E6"/>
<path d="M102.645 56.4132H99.8906V54.4629H102.645V56.4132Z" fill="#0095E6"/>
<path d="M118.212 55.6427H116.883V55.2324H118.212V55.6427Z" fill="#0095E6"/>
<path d="M129.725 56.8988H127.066V53.9766H129.725V56.8988Z" fill="#0095E6"/>
<path d="M134.873 55.9005H132.773V54.9727H134.873V55.9005Z" fill="#0095E6"/>
<path d="M139.559 55.5789H138.93V55.2949H139.559V55.5789Z" fill="#0095E6"/>
<path d="M146.909 55.6359H142.438V55.2383H146.909V55.6359Z" fill="#0095E6"/>
<path d="M161.493 56.81H160.398V54.0645H161.493V56.81Z" fill="#0095E6"/>
<path d="M168.448 56.4064H164.301V54.4688H168.448V56.4064Z" fill="#0095E6"/>
<path d="M173.299 55.6427H170.297V55.2324H173.299V55.6427Z" fill="#0095E6"/>
<path d="M177.491 55.5403H176.957V55.332H177.491V55.5403Z" fill="#0095E6"/>
<path d="M210.153 55.7614H209.402V55.1113H210.153V55.7614Z" fill="#0095E6"/>
<path d="M228.568 55.7677H223.543V55.1113H228.568V55.7677Z" fill="#0095E6"/>
<path d="M4.07964 1.3577H3.14453V0.808594H4.07964V1.3577ZM3.41807 1.00425V1.16204H3.79974V1.00425H3.41807Z" fill="#0095E6"/>
<path d="M21.6094 1.81824H18.168V0.347656H21.6094V1.81824ZM18.4415 0.537003V1.61628H21.3359V0.537003H18.4415Z" fill="#0095E6"/>
<path d="M26.4816 1.30073H24.1406V0.865234H26.4816V1.30073ZM24.4078 1.05458V1.09876H26.2017V1.05458H24.4078Z" fill="#0095E6"/>
<path d="M31.7681 1.64734H29.707V0.517578H31.7681V1.64734ZM29.9742 0.706924V1.44537H31.4882V0.706924H29.9742Z" fill="#0095E6"/>
<path d="M37.0247 1.44503H35.3008V0.712891H37.0247V1.44503ZM35.5743 0.908549V1.24937H36.7511V0.908549H35.5743Z" fill="#0095E6"/>
<path d="M41.8958 1.32433H41.2852V0.832031H41.8958V1.32433ZM41.5587 1.02769V1.12236H41.6223V1.02769H41.5587Z" fill="#0095E6"/>
<path d="M54.2946 2.20153H50.5859V-0.0390625H54.2946V2.20153ZM50.8595 0.156595V2.00588H54.021V0.156595H50.8595Z" fill="#0095E6"/>
<path d="M58.3012 1.34372H57.4297V0.826172H58.3012V1.34372ZM57.6969 1.02183V1.14806H58.0213V1.02183H57.6969Z" fill="#0095E6"/>
<path d="M65.5865 2.27203H61V-0.107422H65.5865V2.27203ZM61.2735 0.0819238V2.07006H65.3129V0.0819238H61.2735Z" fill="#0095E6"/>
<path d="M85.6738 1.41271H84.3125V0.75H85.6738V1.41271ZM84.5797 0.939346V1.21074H85.3939V0.939346H84.5797Z" fill="#0095E6"/>
<path d="M96.2468 1.34417H95.4453V0.820312H96.2468V1.34417ZM95.7188 1.01597V1.14851H95.9733V1.01597H95.7188Z" fill="#0095E6"/>
<path d="M102.36 2.00748H100.172V0.158203H102.36V2.00748ZM100.452 0.347549V1.80551H102.093V0.347549H100.452Z" fill="#0095E6"/>
<path d="M107.551 1.90031H105.84V0.265625H107.551V1.90031ZM106.12 0.454971V1.69834H107.284V0.454971H106.12Z" fill="#0095E6"/>
<path d="M112.754 1.81824H111.488V0.347656H112.754V1.81824ZM111.755 0.543314V1.62259H112.474V0.543314H111.755Z" fill="#0095E6"/>
<path d="M134.014 1.46968H133.633V0.693359H134.014V1.37501V1.46968Z" fill="#0095E6"/>
<path d="M150.324 1.27518H149.879V0.896484H150.324V1.27518Z" fill="#0095E6"/>
<path d="M156.49 1.58316H154.562V0.585938H156.49V1.58316ZM154.836 0.775283V1.38119H156.216V0.775283H154.836Z" fill="#0095E6"/>
<path d="M161.348 2.49313H160.547V-0.328125H161.348V2.49313ZM160.82 -0.132468V2.29747H161.075V-0.132468H160.82Z" fill="#0095E6"/>
<path d="M188.447 1.68402H187.703V0.478516H188.447V1.68402ZM187.983 0.667861V1.48205H188.18V0.667861H187.983Z" fill="#0095E6"/>
<path d="M199.688 1.53972H198.168V0.630859H199.688V1.53972ZM198.441 0.820205V1.33775H199.421V0.820205H198.441Z" fill="#0095E6"/>
<path d="M205.057 2.11465H203.645V0.0507812H205.057V2.11465ZM203.924 0.240127V1.91268H204.79V0.240127H203.924Z" fill="#0095E6"/>
<path d="M215.851 1.82982H214.547V0.333984H215.851V1.82982ZM214.82 0.529643V1.62785H215.577V0.529643H214.82Z" fill="#0095E6"/>
<path d="M221.298 2.08279H219.969V0.0820312H221.298V2.08279ZM220.242 0.271378V1.88082H221.025V0.271378H220.242Z" fill="#0095E6"/>
<path d="M3.90555 5.26997H3.32031V4.66406H3.90555V5.26997ZM3.59385 4.85341V5.068H3.63201V4.85341H3.59385Z" fill="#0095E6"/>
<path d="M10.8152 5.5282H7.26562V4.39844H10.8152V5.5282ZM7.53916 4.5941V5.33254H10.5417V4.5941H7.53916Z" fill="#0095E6"/>
<path d="M15.1141 5.74405H13.8164V4.19141H15.1141V5.74405ZM14.0899 4.38706V5.54839H14.8406V4.38706H14.0899Z" fill="#0095E6"/>
<path d="M20.969 5.8449H18.8125V4.08398H20.969V5.8449ZM19.086 4.27964V5.64925H20.6954V4.27964H19.086Z" fill="#0095E6"/>
<path d="M25.9431 5.61027H24.6836V4.31641H25.9431V5.61027ZM24.9571 4.51206V5.41461H25.6696V4.51206H24.9571Z" fill="#0095E6"/>
<path d="M32.6351 5.37038H28.8438V4.5625H32.6351V5.37038ZM29.1173 4.75185V5.16841H32.3615V4.75185H29.1173Z" fill="#0095E6"/>
<path d="M36.8506 5.26366H35.4766V4.66406H36.8506V5.26366ZM35.7437 4.85972V5.068H36.5707V4.85972H35.7437Z" fill="#0095E6"/>
<path d="M58.2502 5.48431H57.4805V4.44922H58.2502V5.48431ZM57.7476 4.64487V5.28865H57.9703V4.64487H57.7476Z" fill="#0095E6"/>
<path d="M63.7343 5.12462H62.8438V4.80273H63.7343V5.12462Z" fill="#0095E6"/>
<path d="M70.3257 5.54849H67.1133V4.38086H70.3257V5.54849ZM67.3868 4.57652V5.35284H70.0522V4.57652H67.3868Z" fill="#0095E6"/>
<path d="M75.0262 5.50987H73.2578V4.41797H75.0262V5.50987ZM73.525 4.60732V5.3079H74.7463V4.60732H73.525Z" fill="#0095E6"/>
<path d="M79.8288 5.09907H79.3008V4.83398H79.8288V5.09907Z" fill="#0095E6"/>
<path d="M85.4821 5.14446H84.4961V4.79102H85.4821V5.14446Z" fill="#0095E6"/>
<path d="M91.081 5.18114H89.7578V4.75195H91.081V5.18114ZM90.0313 4.9413V4.97917H90.8074V4.9413H90.0313Z" fill="#0095E6"/>
<path d="M97.0849 6.11621H94.5977V3.8125H97.0849V6.11621ZM94.8648 4.00816V5.92055H96.805V4.00816H94.8648Z" fill="#0095E6"/>
<path d="M108.01 5.61703H105.383V4.31055H108.01V5.61703ZM105.656 4.49989V5.41507H107.736V4.49989H105.656Z" fill="#0095E6"/>
<path d="M118.619 5.5784H116.469V4.34766H118.619V5.5784ZM116.749 4.54331V5.38275H118.352V4.54331H116.749Z" fill="#0095E6"/>
<path d="M129.663 5.23179H127.125V4.69531H129.663V5.23179ZM127.405 4.89097V5.03614H129.396V4.89097H127.405Z" fill="#0095E6"/>
<path d="M144.943 5.31341H144.402V4.61914H144.943V5.31341Z" fill="#0095E6"/>
<path d="M156.28 5.14927H154.766V4.7832H156.28V5.14927Z" fill="#0095E6"/>
<path d="M161.47 5.09276H160.434V4.83398H161.47V5.09276Z" fill="#0095E6"/>
<path d="M166.7 5.76915H166.051V4.16602H166.7V5.76915ZM166.331 4.35536V5.56718H166.432V4.35536H166.331Z" fill="#0095E6"/>
<path d="M172.246 5.40946H171.355V4.51953H172.246V5.40946ZM171.629 4.71519V5.2138H171.973V4.71519H171.629Z" fill="#0095E6"/>
<path d="M189.623 6.66559H186.531V3.26367H189.623V6.66559ZM186.805 3.45302V6.46362H189.349V3.45302H186.805Z" fill="#0095E6"/>
<path d="M193.697 5.19993H193.309V4.72656H193.697V5.10525V5.19993Z" fill="#0095E6"/>
<path d="M204.72 5.19467H203.988V4.74023H204.72V5.19467ZM204.268 4.93589V4.99901H204.453V4.93589H204.268Z" fill="#0095E6"/>
<path d="M210.192 5.69911H209.371V4.22852H210.192V5.69911ZM209.645 4.42417V5.50345H209.918V4.42417H209.645Z" fill="#0095E6"/>
<path d="M220.865 5.63056H220.395V4.29883H220.865V5.63056Z" fill="#0095E6"/>
<path d="M4.11836 9.13881H3.11328V8.56445H4.11836V9.13881ZM3.38681 8.7538V8.93683H3.83846V8.7538H3.38681Z" fill="#0095E6"/>
<path d="M9.70941 9.94641H8.36719V7.75H9.70941V9.94641ZM8.64072 7.94566V9.75076H9.43588V7.94566H8.64072Z" fill="#0095E6"/>
<path d="M20.3271 9.05087H19.4492V8.64062H20.3271V9.05087ZM19.7228 8.83628V8.85522H20.0535V8.83628H19.7228Z" fill="#0095E6"/>
<path d="M26.7042 9.89666H23.918V7.79492H26.7042V9.89666ZM24.1915 7.99058V9.70101H26.4307V7.99058H24.1915Z" fill="#0095E6"/>
<path d="M31.1188 9.99662H30.3555V7.69922H31.1188V9.99662ZM30.629 7.89488V9.80096H30.8453V7.89488H30.629Z" fill="#0095E6"/>
<path d="M38.4752 10.1994H33.8633V7.49805H38.4752V10.1994ZM34.1305 7.68739V9.99742H38.1953V7.68739H34.1305Z" fill="#0095E6"/>
<path d="M58.2762 9.46122H57.4492V8.23047H58.2762V9.46122ZM57.7228 8.41981V9.25925H58.0026V8.41981H57.7228Z" fill="#0095E6"/>
<path d="M63.4622 9.09386H63.125V8.60156H63.4622V8.99288V9.09386Z" fill="#0095E6"/>
<path d="M69.3567 9.17112H68.0781V8.52734H69.3567V9.17112ZM68.3517 8.723V8.97546H69.0832V8.723H68.3517Z" fill="#0095E6"/>
<path d="M74.7512 9.13294H73.5234V8.55859H74.7512V9.13294ZM73.797 8.74794V8.93097H74.4776V8.74794H73.797Z" fill="#0095E6"/>
<path d="M80.0592 9.4038H79.0859V8.29297H80.0592V9.4038ZM79.3595 8.48862V9.20814H79.7857V8.48862H79.3595Z" fill="#0095E6"/>
<path d="M91.1148 9.11415H89.7344V8.58398H91.1148V9.11415ZM90.0015 8.77333V8.91218H90.8349V8.77333H90.0015Z" fill="#0095E6"/>
<path d="M102.475 9.13881H100.07V8.56445H102.475V9.13881ZM100.337 8.7538V8.93683H102.195V8.7538H100.337Z" fill="#0095E6"/>
<path d="M107.112 9.44198H106.285V8.26172H107.112V9.44198ZM106.559 8.45107V9.24001H106.839V8.45107H106.559Z" fill="#0095E6"/>
<path d="M112.66 9.00548H111.578V8.68359H112.66V9.00548Z" fill="#0095E6"/>
<path d="M119.257 9.26431H115.828V8.4375H119.257V9.26431ZM116.102 8.62685V9.06234H118.983V8.62685H116.102Z" fill="#0095E6"/>
<path d="M123.402 10.1496H122.543V7.54297H123.402V10.1496ZM122.823 7.73863V9.95398H123.135V7.73863H122.823Z" fill="#0095E6"/>
<path d="M130.024 10.2568H126.773V7.43555H130.024V10.2568ZM127.041 7.6312V10.0611H129.744V7.6312H127.041Z" fill="#0095E6"/>
<path d="M134.757 10.4886H132.887V7.21289H134.757V10.4886ZM133.16 7.40224V10.2866H134.483V7.40224H133.16Z" fill="#0095E6"/>
<path d="M162.969 9.42935H158.93V8.26172H162.969V9.42935ZM159.21 8.45738V9.22739H162.702V8.45738H159.21Z" fill="#0095E6"/>
<path d="M173.277 10.2365H170.332V7.45312H173.277V10.2365ZM170.606 7.64878V10.0409H173.004V7.64878H170.606Z" fill="#0095E6"/>
<path d="M184.051 9.65046H181.246V8.04102H184.051V9.65046ZM181.526 8.23667V9.4548H183.784V8.23667H181.526Z" fill="#0095E6"/>
<path d="M193.986 9.07553H193.02V8.62109H193.986V9.07553ZM193.293 8.81675V8.87987H193.713V8.81675H193.293Z" fill="#0095E6"/>
<path d="M199.32 9.04411H198.531V8.64648H199.32V9.04411Z" fill="#0095E6"/>
<path d="M210.487 9.67511H209.062V8.02148H210.487V9.67511ZM209.336 8.21714V9.47314H210.214V8.21714H209.336Z" fill="#0095E6"/>
<path d="M215.642 9.12618H214.758V8.56445H215.642V9.12618ZM215.038 8.76011V8.93052H215.375V8.76011H215.038Z" fill="#0095E6"/>
<path d="M221.371 9.12618H219.883V8.56445H221.371V9.12618ZM220.163 8.7538V8.92421H221.104V8.7538H220.163Z" fill="#0095E6"/>
<path d="M4.42045 13.5376H2.80469V11.9219H4.42045V13.5376ZM3.07822 12.1175V13.342H4.14691V12.1175H3.07822Z" fill="#0095E6"/>
<path d="M15.1401 13.4942H13.7852V11.9668H15.1401V13.4942ZM14.0587 12.1561V13.2922H14.8666V12.1561H14.0587Z" fill="#0095E6"/>
<path d="M22.47 13.5058H17.3047V11.9531H22.47V13.5058ZM17.5846 12.1488V13.3101H22.2029V12.1488H17.5846Z" fill="#0095E6"/>
<path d="M26.0873 14.3328H24.5352V11.1328H26.0873V14.3328ZM24.8087 11.3222V14.1308H25.8138V11.3222H24.8087Z" fill="#0095E6"/>
<path d="M36.8854 13.399H35.4414V12.0547H36.8854V13.399ZM35.7213 12.2503V13.2034H36.6182V12.2503H35.7213Z" fill="#0095E6"/>
<path d="M42.2406 12.9834H40.9492V12.4785H42.2406V12.9834ZM41.2164 12.6679V12.7815H41.9607V12.6679H41.2164Z" fill="#0095E6"/>
<path d="M47.4261 13.3933H46.6055V12.0742H47.4261V13.3933ZM46.879 12.2636V13.1914H47.1525V12.2636H46.879Z" fill="#0095E6"/>
<path d="M54.6937 13.6767H50.1836V11.7832H54.6937V13.6767ZM50.4571 11.9789V13.481H54.4202V11.9789H50.4571Z" fill="#0095E6"/>
<path d="M63.7083 13.7771H62.875V11.6816H63.7083V13.7771ZM63.1485 11.871V13.5751H63.4348V11.871H63.1485Z" fill="#0095E6"/>
<path d="M70.3939 14.2835H67.0352V11.1719H70.3939V14.2835ZM67.3087 11.3675V14.0878H70.1204V11.3675H67.3087Z" fill="#0095E6"/>
<path d="M74.8458 13.8731H73.4336V11.582H74.8458V13.8731ZM73.7135 11.7777V13.6775H74.5786V11.7777H73.7135Z" fill="#0095E6"/>
<path d="M79.8214 13.0771H79.3125V12.3828H79.8214V13.0771Z" fill="#0095E6"/>
<path d="M86.5285 13.8982H83.4688V11.5566H86.5285V13.8982ZM83.7359 11.7523V13.7026H86.2486V11.7523H83.7359Z" fill="#0095E6"/>
<path d="M91.3919 13.2977H89.4453V12.168H91.3919V13.2977ZM89.7125 12.3573V13.0958H91.112V12.3573H89.7125Z" fill="#0095E6"/>
<path d="M102.118 13.652H100.426V11.8027H102.118V13.652ZM100.699 11.9984V13.4564H101.844V11.9984H100.699Z" fill="#0095E6"/>
<path d="M106.997 12.9767H106.387V12.4844H106.997V12.9767ZM106.66 12.6737V12.7747H106.724V12.6737H106.66Z" fill="#0095E6"/>
<path d="M118.072 13.4942H117.016V11.9668H118.072V13.4942ZM117.289 12.1625V13.2985H117.798V12.1625H117.289Z" fill="#0095E6"/>
<path d="M128.956 13.5512H127.836V11.9102H128.956V13.5512ZM128.116 12.0995V13.3492H128.688V12.0995H128.116Z" fill="#0095E6"/>
<path d="M139.797 13.1277H138.703V12.3262H139.797V13.1277ZM138.977 12.5218V12.9321H139.524V12.5218H138.977Z" fill="#0095E6"/>
<path d="M145.421 12.9771H143.926V12.4785H145.421V12.9771ZM144.199 12.6742V12.7815H145.147V12.6742H144.199Z" fill="#0095E6"/>
<path d="M167.711 13.04H165.039V12.4277H167.711V13.04ZM165.319 12.6171V12.838H167.444V12.6171H165.319Z" fill="#0095E6"/>
<path d="M174.008 14.0551H169.594V11.4043H174.008V14.0551ZM169.874 11.5936V13.8532H173.741V11.5936H169.874Z" fill="#0095E6"/>
<path d="M178.256 13.8528H176.195V11.5996H178.256V13.8528ZM176.469 11.7953V13.6572H177.983V11.7953H176.469Z" fill="#0095E6"/>
<path d="M184.069 13.6066H181.219V11.8457H184.069V13.6066ZM181.499 12.0414V13.411H183.801V12.0414H181.499Z" fill="#0095E6"/>
<path d="M193.931 13.3798H193.078V12.0859H193.931V13.3798ZM193.352 12.2753V13.1778H193.657V12.2753H193.352Z" fill="#0095E6"/>
<path d="M199.509 13.1843H198.352V12.2754H199.509V13.1843ZM198.625 12.4647V12.9823H199.236V12.4647H198.625Z" fill="#0095E6"/>
<path d="M215.78 12.9819H214.629V12.4707H215.78V12.9819ZM214.902 12.6664V12.7863H215.507V12.6664H214.902Z" fill="#0095E6"/>
<path d="M222.568 14.0547H218.688V11.4102H222.568V14.0547ZM218.961 11.5995V13.8527H222.288V11.5995H218.961Z" fill="#0095E6"/>
<path d="M9.9865 17.1236H8.07812V16.1074H9.9865V17.1236ZM8.35166 16.2968V16.9216H9.71297V16.2968H8.35166Z" fill="#0095E6"/>
<path d="M20.1481 17.2428H19.6328V15.9805H20.1481V17.2428Z" fill="#0095E6"/>
<path d="M26.0687 17.1727H24.5547V16.043H26.0687V17.1727ZM24.8346 16.2386V16.9771H25.8015V16.2386H24.8346Z" fill="#0095E6"/>
<path d="M31.6376 17.5141H29.8438V15.709H31.6376V17.5141ZM30.1173 15.8983V17.3121H31.3641V15.8983H30.1173Z" fill="#0095E6"/>
<path d="M42.2067 17.7858H40.9727V15.4316H42.2067V17.7858ZM41.2398 15.6273V17.5902H41.9268V15.6273H41.2398Z" fill="#0095E6"/>
<path d="M52.9887 16.9276H51.8945V16.3027H52.9887V16.9276ZM52.1744 16.4921V16.7256H52.7215V16.4921H52.1744Z" fill="#0095E6"/>
<path d="M58.3522 16.9715H57.3789V16.252H58.3522V16.9715ZM57.6461 16.4413V16.7695H58.0723V16.4413H57.6461Z" fill="#0095E6"/>
<path d="M63.8255 17.0086H62.7695V16.207H63.8255V17.0086ZM63.0431 16.4027V16.8129H63.552V16.4027H63.0431Z" fill="#0095E6"/>
<path d="M74.8237 17.1419H73.4688V16.0879H74.8237V17.1419ZM73.7486 16.2772V16.9399H74.5565V16.2772H73.7486Z" fill="#0095E6"/>
<path d="M80.0651 16.8006H79.0664V16.4219H80.0651V16.8006Z" fill="#0095E6"/>
<path d="M86.1838 17.2491H83.8047V15.9805H86.1838V17.2491ZM84.0782 16.1698V17.0471H85.9103V16.1698H84.0782Z" fill="#0095E6"/>
<path d="M91.8818 16.9276H88.9492V16.3027H91.8818V16.9276ZM89.2228 16.4921V16.7256H91.6082V16.4921H89.2228Z" fill="#0095E6"/>
<path d="M97.0751 17.1926H94.6133V16.0312H97.0751V17.1926ZM94.8932 16.2269V16.9969H96.8079V16.2269H94.8932Z" fill="#0095E6"/>
<path d="M107.792 17.6782H105.598V15.5449H107.792V17.6782ZM105.878 15.7406V17.4826H107.525V15.7406H105.878Z" fill="#0095E6"/>
<path d="M112.782 17.5208H111.465V15.7031H112.782V17.5208ZM111.738 15.8925V17.3189H112.508V15.8925H111.738Z" fill="#0095E6"/>
<path d="M118.645 17.0096H116.438V16.2207H118.645V17.0096ZM116.711 16.41V16.8077H118.365V16.41H116.711Z" fill="#0095E6"/>
<path d="M124.694 17.179H121.246V16.043H124.694V17.179ZM121.526 16.2386V16.9834H124.427V16.2386H121.526Z" fill="#0095E6"/>
<path d="M129.385 16.8638H127.406V16.3652H129.385V16.8638ZM127.68 16.5546V16.6619H129.111V16.5546H127.68Z" fill="#0095E6"/>
<path d="M135.825 17.3886H131.824V15.8359H135.825V17.3886ZM132.098 16.0253V17.1866H135.552V16.0253H132.098Z" fill="#0095E6"/>
<path d="M139.777 17.5021H138.715V15.7285H139.777V17.5021ZM138.988 15.9242V17.3064H139.504V15.9242H138.988Z" fill="#0095E6"/>
<path d="M145.426 17.3128H143.918V15.918H145.426V17.3128ZM144.192 16.1073V17.1108H145.152V16.1073H144.192Z" fill="#0095E6"/>
<path d="M155.955 18.2527H155.09V14.9707H155.955V18.2527ZM155.363 15.16V18.0507H155.681V15.16H155.363Z" fill="#0095E6"/>
<path d="M162.612 17.1158H159.285V16.0996H162.612V17.1158ZM159.559 16.2953V16.9201H162.339V16.2953H159.559Z" fill="#0095E6"/>
<path d="M167.334 17.4508H165.406V15.7656H167.334V17.4508ZM165.686 15.9613V17.2551H167.067V15.9613H165.686Z" fill="#0095E6"/>
<path d="M173.021 17.7535H170.578V15.4688H173.021V17.7535ZM170.858 15.6581V17.5516H172.754V15.6581H170.858Z" fill="#0095E6"/>
<path d="M183.796 18.0133H181.5V15.2109H183.796V18.0133ZM181.774 15.4003V17.8113H183.523V15.4003H181.774Z" fill="#0095E6"/>
<path d="M195.153 17.2177H191.852V16.0059H195.153V17.2177ZM192.125 16.1952V17.0157H194.88V16.1952H192.125Z" fill="#0095E6"/>
<path d="M199.883 17.2626H197.969V15.9688H199.883V17.2626ZM198.242 16.1644V17.067H199.61V16.1644H198.242Z" fill="#0095E6"/>
<path d="M215.468 16.7702H214.934V16.4609H215.468V16.7702Z" fill="#0095E6"/>
<path d="M221.515 17.2814H219.746V15.9434H221.515V17.2814ZM220.026 16.139V17.0857H221.247V16.139H220.026Z" fill="#0095E6"/>
<path d="M227.237 17.9244H224.871V15.2988H227.237V17.9244ZM225.151 15.4882V17.7225H226.97V15.4882H225.151Z" fill="#0095E6"/>
<path d="M4.20518 20.8905H3.01562V20.1016H4.20518V20.8905ZM3.28916 20.2909V20.6885H3.93165V20.2909H3.28916Z" fill="#0095E6"/>
<path d="M11.2418 21.0228H6.83984V19.9688H11.2418V21.0228ZM7.11338 20.1644V20.8271H10.9683V20.1644H7.11338Z" fill="#0095E6"/>
<path d="M15.9796 21.4838H12.9453V19.502H15.9796V21.4838ZM13.2125 19.6976V21.2881H15.6997V19.6976H13.2125Z" fill="#0095E6"/>
<path d="M26.1795 21.1184H24.4492V19.875H26.1795V21.1184ZM24.7291 20.0643V20.9164H25.9123V20.0643H24.7291Z" fill="#0095E6"/>
<path d="M36.7996 20.9228H35.5273V20.0645H36.7996V20.9228ZM35.8009 20.2601V20.7272H36.5261V20.2601H35.8009Z" fill="#0095E6"/>
<path d="M41.9856 20.9542H41.2031V20.0391H41.9856V20.9542ZM41.4767 20.2347V20.7586H41.712V20.2347H41.4767Z" fill="#0095E6"/>
<path d="M49.5293 21.7749H44.5039V19.2188H49.5293V21.7749ZM44.7838 19.4144V21.5793H49.2621V19.4144H44.7838Z" fill="#0095E6"/>
<path d="M53.735 21.4013H51.1523V19.5898H53.735V21.4013ZM51.4322 19.7855V21.2056H53.4678V19.7855H51.4322Z" fill="#0095E6"/>
<path d="M58.4169 20.7133H57.3164V20.2715H58.4169V20.7133ZM57.5963 20.4608V20.5113H58.1497V20.4608H57.5963Z" fill="#0095E6"/>
<path d="M79.9185 21.2574H79.2188V19.7363H79.9185V21.2574ZM79.4923 19.932V21.0618H79.645V19.932H79.4923Z" fill="#0095E6"/>
<path d="M85.6812 21.0295H84.3008V19.9629H85.6812V21.0295ZM84.5807 20.1585V20.8339H85.414V20.1585H84.5807Z" fill="#0095E6"/>
<path d="M92.2588 21.5104H88.582V19.4844H92.2588V21.5104ZM88.8556 19.6737V21.3084H91.9853V19.6737H88.8556Z" fill="#0095E6"/>
<path d="M96.5886 21.1251H95.0938V19.8691H96.5886V21.1251ZM95.3736 20.0648V20.9232H96.3215V20.0648H95.3736Z" fill="#0095E6"/>
<path d="M102.297 21.2009H100.242V19.7871H102.297V21.2009ZM100.509 19.9765V20.9989H102.017V19.9765H100.509Z" fill="#0095E6"/>
<path d="M106.99 20.8654H106.398V20.127H106.99V20.8654ZM106.678 20.3163V20.6634H106.723V20.3163H106.678Z" fill="#0095E6"/>
<path d="M112.52 21.365H111.719V19.623H112.52V21.365ZM111.992 19.8187V21.1631H112.247V19.8187H111.992Z" fill="#0095E6"/>
<path d="M118.271 20.7766H116.82V20.2148H118.271V20.7766ZM117.094 20.4042V20.5746H117.997V20.4042H117.094Z" fill="#0095E6"/>
<path d="M123.474 20.8726H122.469V20.1152H123.474V20.8726ZM122.736 20.3109V20.677H123.194V20.3109H122.736Z" fill="#0095E6"/>
<path d="M134.407 21.3332H133.23V19.6543H134.407V21.3332ZM133.504 19.8436V21.1312H134.134V19.8436H133.504Z" fill="#0095E6"/>
<path d="M140.303 21.2762H138.191V19.7109H140.303V21.2762ZM138.465 19.9003V21.0742H140.03V19.9003H138.465Z" fill="#0095E6"/>
<path d="M146.209 21.3399H143.137V19.6484H146.209V21.3399ZM143.417 19.8378V21.138H145.942V19.8378H143.417Z" fill="#0095E6"/>
<path d="M166.706 20.9547H166.051V20.0332H166.706V20.9547ZM166.324 20.2225V20.7527H166.432V20.2225H166.324Z" fill="#0095E6"/>
<path d="M173.905 20.777H169.688V20.209H173.905V20.777ZM169.967 20.4046V20.5814H173.638V20.4046H169.967Z" fill="#0095E6"/>
<path d="M189.98 21.2511H186.176V19.7363H189.98V21.2511ZM186.449 19.932V21.0491H189.706V19.932H186.449Z" fill="#0095E6"/>
<path d="M194.267 21.6224H192.734V19.3691H194.267V21.6224ZM193.008 19.5648V21.4267H193.994V19.5648H193.008Z" fill="#0095E6"/>
<path d="M205.59 20.7399H203.109V20.2539H205.59V20.7399ZM203.383 20.4433V20.5379H205.317V20.4433H203.383Z" fill="#0095E6"/>
<path d="M210.184 21.5658H209.363V19.4199H210.184V21.5658ZM209.643 19.6093V21.3639H209.917V19.6093H209.643Z" fill="#0095E6"/>
<path d="M37.0634 24.767H35.2695V23.9844H37.0634V24.767ZM35.5431 24.18V24.5713H36.7899V24.18H35.5431Z" fill="#0095E6"/>
<path d="M47.9782 25.7509H46.0508V23.0117H47.9782V25.7509ZM46.3243 23.2011V25.549H47.7047V23.2011H46.3243Z" fill="#0095E6"/>
<path d="M54.8791 25.5993H50V23.1504H54.8791V25.5993ZM50.2672 23.346V25.4036H54.5992V23.346H50.2672Z" fill="#0095E6"/>
<path d="M69.2734 24.7661H68.1602V23.9961H69.2734V24.7661ZM68.4273 24.1854V24.5641H68.9935V24.1854H68.4273Z" fill="#0095E6"/>
<path d="M75.5971 25.5235H72.6836V23.2324H75.5971V25.5235ZM72.9571 23.4218V25.3215H75.3172V23.4218H72.9571Z" fill="#0095E6"/>
<path d="M80.2529 24.8032H78.8789V23.9512H80.2529V24.8032ZM79.1588 24.1468V24.6076H79.9858V24.1468H79.1588Z" fill="#0095E6"/>
<path d="M85.4973 24.7033H84.4922V24.0469H85.4973V24.7033ZM84.7657 24.2425V24.5076H85.2237V24.2425H84.7657Z" fill="#0095E6"/>
<path d="M91.0064 24.9877H89.8359V23.7695H91.0064V24.9877ZM90.1031 23.9652V24.792H90.7265V23.9652H90.1031Z" fill="#0095E6"/>
<path d="M98.0553 25.41H93.6406V23.3398H98.0553V25.41ZM93.9078 23.5355V25.2144H97.7754V23.5355H93.9078Z" fill="#0095E6"/>
<path d="M103.379 25.594H99.168V23.1641H103.379V25.594ZM99.4415 23.3534V25.392H103.106V23.3534H99.4415Z" fill="#0095E6"/>
<path d="M112.448 24.8104H111.793V23.9395H112.448V24.8104ZM112.06 24.1288V24.6085H112.168V24.1288H112.06Z" fill="#0095E6"/>
<path d="M119.078 25.5418H116.012V23.2129H119.078V25.5418ZM116.285 23.4022V25.3399H118.804V23.4022H116.285Z" fill="#0095E6"/>
<path d="M134.121 25.4733H133.523V23.2832H134.121V25.4733ZM133.797 23.4789V25.2776H133.848V23.4789H133.797Z" fill="#0095E6"/>
<path d="M155.72 24.6961H155.332V24.0586H155.72V24.5951V24.6961Z" fill="#0095E6"/>
<path d="M161.566 24.7419H160.332V24.0098H161.566V24.7419ZM160.606 24.2054V24.5462H161.293V24.2054H160.606Z" fill="#0095E6"/>
<path d="M178.561 25.594H175.883V23.1641H178.561V25.594ZM176.163 23.3597V25.3983H178.294V23.3597H176.163Z" fill="#0095E6"/>
<path d="M188.904 25.1701H187.25V23.5859H188.904V25.1701ZM187.53 23.7816V24.9745H188.637V23.7816H187.53Z" fill="#0095E6"/>
<path d="M194.546 24.8491H192.453V23.9023H194.546V24.8491ZM192.727 24.098V24.6534H194.272V24.098H192.727Z" fill="#0095E6"/>
<path d="M199.673 24.6965H198.172V24.0527H199.673V24.6965ZM198.445 24.2421V24.4945H199.4V24.2421H198.445Z" fill="#0095E6"/>
<path d="M204.611 24.5387H204.09V24.2168H204.611V24.5387Z" fill="#0095E6"/>
<path d="M210.019 24.5454H209.535V24.2109H210.019V24.5454Z" fill="#0095E6"/>
<path d="M216.214 25.1016H214.191V23.6562H216.214V25.1016ZM214.471 23.8519V24.9059H215.947V23.8519H214.471Z" fill="#0095E6"/>
<path d="M220.813 24.557H220.438V24.1973H220.813V24.456V24.557Z" fill="#0095E6"/>
<path d="M227.843 26.2187H224.262V22.5391H227.843V26.2187ZM224.542 22.7347V26.023H227.576V22.7347H224.542Z" fill="#0095E6"/>
<path d="M5.05352 29.1721H2.17188V27.3418H5.05352V29.1721ZM2.45177 27.5375V28.9765H4.78635V27.5375H2.45177Z" fill="#0095E6"/>
<path d="M10.1659 29.0896H7.91406V27.4297H10.1659V29.0896ZM8.19396 27.619V28.8877H9.89877V27.619H8.19396Z" fill="#0095E6"/>
<path d="M16.1601 29.2605H12.7695V27.2598H16.1601V29.2605ZM13.0431 27.4554V29.0649H15.8865V27.4554H13.0431Z" fill="#0095E6"/>
<path d="M20.4031 28.6662H19.3789V27.8457H20.4031V28.6662ZM20.1295 28.0414H19.6524V28.4705H20.1295V28.0414Z" fill="#0095E6"/>
<path d="M25.6185 28.8183H25.0078V27.7012H25.6185V28.8183ZM25.275 27.8968V28.6227H25.3386V27.8968H25.275Z" fill="#0095E6"/>
<path d="M36.5024 28.4577H35.8281V28.0664H36.5024V28.4577Z" fill="#0095E6"/>
<path d="M41.8958 28.5272H41.2852V27.9844H41.8958V28.5272ZM41.5587 28.18V28.3315H41.6223V28.18H41.5587Z" fill="#0095E6"/>
<path d="M58.1732 28.4905H57.5625V28.0234H58.1732V28.4905ZM57.8297 28.2191V28.2948H57.8933V28.2191H57.8297Z" fill="#0095E6"/>
<path d="M64.3777 29.4493H62.2148V27.0762H64.3777V29.4493ZM62.482 27.2655V29.2473H64.0978V27.2655H62.482Z" fill="#0095E6"/>
<path d="M76.1718 29.2987H72.1133V27.2285H76.1718V29.2987ZM72.3868 27.4179V29.0967H75.8982V27.4179H72.3868Z" fill="#0095E6"/>
<path d="M79.8425 28.6035H79.2891V27.9219H79.8425V28.6035Z" fill="#0095E6"/>
<path d="M96.2679 28.5021H95.4219V28.0098H96.2679V28.5021ZM95.6954 28.2054V28.3064H95.9944V28.2054H95.6954Z" fill="#0095E6"/>
<path d="M102.283 28.9386H100.254V27.5879H102.283V28.9386ZM100.534 27.7772V28.7366H102.016V27.7772H100.534Z" fill="#0095E6"/>
<path d="M112.52 28.9071H111.719V27.6133H112.52V28.9071ZM111.986 27.8026V28.7052H112.24V27.8026H111.986Z" fill="#0095E6"/>
<path d="M123.316 28.729H122.629V27.7949H123.316V28.729ZM122.896 27.9843V28.5271H123.036V27.9843H122.896Z" fill="#0095E6"/>
<path d="M129.563 29.108H127.234V27.4102H129.563V29.108ZM127.508 27.5995V28.906H129.289V27.5995H127.508Z" fill="#0095E6"/>
<path d="M134.771 29.4367H132.875V27.0762H134.771V29.4367ZM133.149 27.2718V29.241H134.497V27.2718H133.149Z" fill="#0095E6"/>
<path d="M144.906 28.408H144.441V28.1113H144.906V28.408Z" fill="#0095E6"/>
<path d="M151.87 29.4498H148.32V27.0703H151.87V29.4498ZM148.6 27.266V29.2478H151.603V27.266H148.6Z" fill="#0095E6"/>
<path d="M156.031 28.8502H155.02V27.6699H156.031V28.8502ZM155.293 27.8593V28.6482H155.757V27.8593H155.293Z" fill="#0095E6"/>
<path d="M161.228 28.4143H160.668V28.1113H161.228V28.4143Z" fill="#0095E6"/>
<path d="M167.678 28.755H165.07V27.7578H167.678V28.755ZM165.35 27.9535V28.5594H167.411V27.9535H165.35Z" fill="#0095E6"/>
<path d="M172.656 28.9071H170.945V27.6133H172.656V28.9071ZM171.219 27.8026V28.7052H172.383V27.8026H171.219Z" fill="#0095E6"/>
<path d="M179.6 28.6354H174.848V27.8906H179.6V28.6354ZM175.128 28.08V28.4334H179.332V28.08H175.128Z" fill="#0095E6"/>
<path d="M183.963 29.0713H181.336V27.4492H183.963V29.0713ZM181.616 27.6386V28.8693H183.696V27.6386H181.616Z" fill="#0095E6"/>
<path d="M189.186 28.8685H186.973V27.6504H189.186V28.8685ZM187.24 27.846V28.6665H188.906V27.846H187.24Z" fill="#0095E6"/>
<path d="M194.904 28.6856H192.105V27.8398H194.904V28.6856ZM192.379 28.0292V28.4836H194.631V28.0292H192.379Z" fill="#0095E6"/>
<path d="M210.228 28.5398H209.324V27.9844H210.228V28.5398ZM209.598 28.1737V28.3378H209.954V28.1737H209.598Z" fill="#0095E6"/>
<path d="M216.913 30.1179H213.484V26.4004H216.913V30.1179ZM213.764 26.5897V29.9159H216.646V26.5897H213.764Z" fill="#0095E6"/>
<path d="M221.2 28.5523H220.055V27.959H221.2V28.5523ZM220.335 28.1546V28.3566H220.933V28.1546H220.335Z" fill="#0095E6"/>
<path d="M227.064 29.0964H225.035V27.4238H227.064V29.0964ZM225.309 27.6195V28.9007H226.791V27.6195H225.309Z" fill="#0095E6"/>
<path d="M4.43417 32.5852H2.79297V31.6953H4.43417V32.5852ZM3.06014 31.8847V32.3833H4.15428V31.8847H3.06014Z" fill="#0095E6"/>
<path d="M10.212 32.5481H7.87109V31.7402H10.212V32.5481ZM8.15099 31.9359V32.3525H9.94486V31.9359H8.15099Z" fill="#0095E6"/>
<path d="M21.2848 32.788H18.4922V31.4941H21.2848V32.788ZM18.7594 31.6898V32.5923H21.0049V31.6898H18.7594Z" fill="#0095E6"/>
<path d="M26.9332 32.7494H23.6953V31.5312H26.9332V32.7494ZM23.9625 31.7269V32.5537H26.6533V31.7269H23.9625Z" fill="#0095E6"/>
<path d="M31.1276 32.7697H30.3516V31.5137H31.1276V32.7697ZM30.6251 31.7093V32.574H30.8541V31.7093H30.6251Z" fill="#0095E6"/>
<path d="M42.2975 32.5983H40.8789V31.6895H42.2975V32.5983ZM41.1588 31.8788V32.3963H42.0303V31.8788H41.1588Z" fill="#0095E6"/>
<path d="M53.7164 32.453H51.1719V31.8281H53.7164V32.453ZM51.4391 32.0238V32.2573H53.4365V32.0238H51.4391Z" fill="#0095E6"/>
<path d="M63.906 32.5983H62.6719V31.6895H63.906V32.5983ZM62.9454 31.8851V32.4027H63.6324V31.8851H62.9454Z" fill="#0095E6"/>
<path d="M70.2983 32.7378H67.1367V31.5449H70.2983V32.7378ZM67.4103 31.7343V32.5358H70.0247V31.7343H67.4103Z" fill="#0095E6"/>
<path d="M74.7252 32.5664H73.5547V31.7207H74.7252V32.5664ZM73.8346 31.9101V32.3645H74.458V31.9101H73.8346Z" fill="#0095E6"/>
<path d="M79.942 33.1361H79.1914V31.1543H79.942V33.1361ZM79.4586 31.3436V32.9342H79.6621V31.3436H79.4586Z" fill="#0095E6"/>
<path d="M92.0024 33.7342H88.8281V30.5469H92.0024V33.7342ZM89.1017 30.7425V33.5385H91.7225V30.7425H89.1017Z" fill="#0095E6"/>
<path d="M102.584 33.6903H99.957V30.5977H102.584V33.6903ZM100.231 30.787V33.4883H102.311V30.787H100.231Z" fill="#0095E6"/>
<path d="M107.626 32.3154H105.762V31.9746H107.626V32.3154Z" fill="#0095E6"/>
<path d="M123.428 33.7043H122.512V30.5801H123.428V33.7043ZM122.785 30.7694V33.5023H123.154V30.7694H122.785Z" fill="#0095E6"/>
<path d="M129.878 32.4091H126.914V31.8789H129.878V32.4091ZM127.188 32.0683V32.2071H129.605V32.0683H127.188Z" fill="#0095E6"/>
<path d="M135.488 32.9401H132.148V31.3496H135.488V32.9401ZM132.428 31.539V32.7382H135.221V31.539H132.428Z" fill="#0095E6"/>
<path d="M145.558 33.3871H143.777V30.9004H145.558V33.3871ZM144.057 31.0897V33.1852H145.291V31.0897H144.057Z" fill="#0095E6"/>
<path d="M156.718 33.7927H154.332V30.498H156.718V33.7927ZM154.606 30.6937V33.597H156.444V30.6937H154.606Z" fill="#0095E6"/>
<path d="M167.874 32.7243H164.871V31.5566H167.874V32.7243ZM165.151 31.7523V32.5286H167.606V31.7523H165.151Z" fill="#0095E6"/>
<path d="M178.243 32.8314H176.207V31.4492H178.243V32.8314ZM176.487 31.6386V32.6295H177.975V31.6386H176.487Z" fill="#0095E6"/>
<path d="M182.889 32.4665H182.418V31.8164H182.889V32.4665Z" fill="#0095E6"/>
<path d="M195.42 33.8868H191.578V30.3965H195.42V33.8868ZM191.858 30.5921V33.6911H195.153V30.5921H191.858Z" fill="#0095E6"/>
<path d="M199.348 33.1733H198.496V31.1094H199.348V33.1733ZM198.776 31.2987V32.9713H199.081V31.2987H198.776Z" fill="#0095E6"/>
<path d="M205.532 32.6055H203.172V31.6777H205.532V32.6055ZM203.445 31.8734V32.4099H205.258V31.8734H203.445Z" fill="#0095E6"/>
<path d="M211.03 32.7007H208.523V31.5898H211.03V32.7007ZM208.803 31.7792V32.4987H210.763V31.7792H208.803Z" fill="#0095E6"/>
<path d="M216.233 33.2939H214.172V30.9902H216.233V33.2939ZM214.445 31.1796V33.092H215.959V31.1796H214.445Z" fill="#0095E6"/>
<path d="M4.67053 36.8094H2.55859V35.2441H4.67053V36.8094ZM2.83213 35.4398V36.6137H4.39064V35.4398H2.83213Z" fill="#0095E6"/>
<path d="M11.6621 37.8565H6.41406V34.1895H11.6621V37.8565ZM6.6876 34.3851V37.6608H11.3886V34.3851H6.6876Z" fill="#0095E6"/>
<path d="M26.2653 36.9281H24.3633V35.123H26.2653V36.9281ZM24.6432 35.3124V36.7262H25.9981V35.3124H24.6432Z" fill="#0095E6"/>
<path d="M31.1575 36.3803H30.3242V35.6797H31.1575V36.3803ZM30.5978 35.869V36.1783H30.884V35.869H30.5978Z" fill="#0095E6"/>
<path d="M42.3024 36.1716H40.8711V35.875H42.3024V36.1716Z" fill="#0095E6"/>
<path d="M47.328 36.329H46.7109V35.7168H47.328V36.329ZM46.9781 35.9125V36.1334H47.0481V35.9125H46.9781Z" fill="#0095E6"/>
<path d="M53.1132 36.4294H51.7773V35.6152H53.1132V36.4294ZM52.0445 35.8109V36.2275H52.8333V35.8109H52.0445Z" fill="#0095E6"/>
<path d="M58.5562 37.1811H57.1758V34.8711H58.5562V37.1811ZM57.443 35.0604V36.9791H58.2763V35.0604H57.443Z" fill="#0095E6"/>
<path d="M69.8555 36.8214H67.5781V35.2246H69.8555V36.8214ZM67.8517 35.4203V36.6258H69.5819V35.4203H67.8517Z" fill="#0095E6"/>
<path d="M75.2028 37.0421H73.0781V35.0098H75.2028V37.0421ZM73.3517 35.1991V36.8401H74.9293V35.1991H73.3517Z" fill="#0095E6"/>
<path d="M81.3376 37.1927H77.8008V34.8574H81.3376V37.1927ZM78.0743 35.0531V36.997H81.0641V35.0531H78.0743Z" fill="#0095E6"/>
<path d="M87.4176 36.6752H82.5703V35.375H87.4176V36.6752ZM82.8439 35.5707V36.4795H87.1441V35.5707H82.8439Z" fill="#0095E6"/>
<path d="M96.2007 36.2533H95.4883V35.7988H96.2007V36.2533ZM95.7618 35.9945V36.0576H95.9272V35.9945H95.7618Z" fill="#0095E6"/>
<path d="M107.384 36.1895H106.004V35.8613H107.384V36.1895Z" fill="#0095E6"/>
<path d="M114.696 37.8246H109.543V34.2207H114.696V37.8246ZM109.816 34.4101V37.6226H114.422V34.4101H109.816Z" fill="#0095E6"/>
<path d="M118.612 36.6187H116.469V35.4258H118.612V36.6187ZM116.742 35.6151V36.4167H118.339V35.6151H116.742Z" fill="#0095E6"/>
<path d="M123.612 36.2161H122.32V35.8438H123.612V36.2161Z" fill="#0095E6"/>
<path d="M134.453 36.3609H133.188V35.6855H134.453V36.3609ZM133.467 35.8812V36.1652H134.186V35.8812H133.467Z" fill="#0095E6"/>
<path d="M139.981 36.3484H138.512V35.7109H139.981V36.3484ZM138.785 35.9003V36.1464H139.708V35.9003H138.785Z" fill="#0095E6"/>
<path d="M145.841 37.6233H143.5V34.4297H145.841V37.6233ZM143.78 34.6253V37.4277H145.574V34.6253H143.78Z" fill="#0095E6"/>
<path d="M150.865 36.7828H149.332V35.2617H150.865V36.7828ZM149.612 35.4574V36.5871H150.598V35.4574H149.612Z" fill="#0095E6"/>
<path d="M166.691 36.386H166.055V35.6602H166.691V36.386ZM166.335 35.8558V36.1903H166.424V35.8558H166.335Z" fill="#0095E6"/>
<path d="M172.449 36.7018H171.145V35.3574H172.449V36.7018ZM171.424 35.5468V36.4998H172.181V35.5468H171.424Z" fill="#0095E6"/>
<path d="M177.626 37.1676H176.824V34.8828H177.626V37.1676ZM177.098 35.0785V36.9719H177.352V35.0785H177.098Z" fill="#0095E6"/>
<path d="M194.905 37.2951H192.094V34.7578H194.905V37.2951ZM192.374 34.9535V37.0994H194.638V34.9535H192.374Z" fill="#0095E6"/>
<path d="M205.379 36.2465H203.324V35.8047H205.379V36.2465ZM203.598 36.0003V36.0508H205.105V36.0003H203.598Z" fill="#0095E6"/>
<path d="M212.31 36.9986H207.246V35.0547H212.31V36.9986ZM207.526 35.2503V36.803H212.042V35.2503H207.526Z" fill="#0095E6"/>
<path d="M215.795 36.1895H214.605V35.8613H215.795V36.1895Z" fill="#0095E6"/>
<path d="M220.929 37.0807H220.324V34.9727H220.929V37.0807ZM220.598 35.1683V36.8787H220.655V35.1683H220.598Z" fill="#0095E6"/>
<path d="M226.791 36.6516H225.309V35.4082H226.791V36.6516ZM225.582 35.5976V36.4496H226.517V35.5976H225.582Z" fill="#0095E6"/>
<path d="M5.19916 41.3468H2.03125V38.4688H5.19916V41.3468ZM2.30478 38.6581V41.1448H4.91926V38.6581H2.30478Z" fill="#0095E6"/>
<path d="M9.25533 40.1529H8.81641V39.6543H9.25533V40.1529Z" fill="#0095E6"/>
<path d="M15.2857 40.2485H13.6445V39.5605H15.2857V40.2485ZM13.9181 39.7562V40.0528H15.0122V39.7562H13.9181Z" fill="#0095E6"/>
<path d="M20.1358 40.2664H19.6523V39.5469H20.1358V40.2664Z" fill="#0095E6"/>
<path d="M26.9979 41.7069H23.6328V38.1094H26.9979V41.7069ZM23.9127 38.305V41.505H26.7307V38.305H23.9127Z" fill="#0095E6"/>
<path d="M32.87 40.3615H28.6016V39.459H32.87V40.3615ZM28.8751 39.6483V40.1596H32.5964V39.6483H28.8751Z" fill="#0095E6"/>
<path d="M86.379 41.2894H83.6055V38.5312H86.379V41.2894ZM83.879 38.7206V41.0874H86.1054V38.7206H83.879Z" fill="#0095E6"/>
<path d="M96.1586 40.1346H95.5352V39.6738H96.1586V40.1346ZM95.8151 39.8695V39.9326H95.8914V39.8695H95.8151Z" fill="#0095E6"/>
<path d="M112.833 40.2668H111.414V39.541H112.833V40.2668ZM111.688 39.7367V40.0712H112.559V39.7367H111.688Z" fill="#0095E6"/>
<path d="M118.403 40.4257H116.691V39.3906H118.403V40.4257ZM116.971 39.5863V40.2301H118.135V39.5863H116.971Z" fill="#0095E6"/>
<path d="M123.791 41.2715H122.156V38.5449H123.791V41.2715ZM122.43 38.7343V41.0695H123.518V38.7343H122.43Z" fill="#0095E6"/>
<path d="M129.924 40.9369H126.871V38.873H129.924V40.9369ZM127.145 39.0687V40.7413H129.651V39.0687H127.145Z" fill="#0095E6"/>
<path d="M156.713 40.1983H154.34V39.6113H156.713V40.1983ZM154.613 39.807V40.0026H156.439V39.807H154.613Z" fill="#0095E6"/>
<path d="M173.477 40.3624H170.125V39.4473H173.477V40.3624ZM170.399 39.6429V40.1668H173.204V39.6429H170.399Z" fill="#0095E6"/>
<path d="M177.78 40.1476H176.68V39.668H177.78V40.1476ZM176.953 39.8573V39.9457H177.507V39.8573H176.953Z" fill="#0095E6"/>
<path d="M188.936 41.0755H187.219V38.7402H188.936V41.0755ZM187.499 38.9296V40.8735H188.669V38.9296H187.499Z" fill="#0095E6"/>
<path d="M200.412 41.4795H197.441V38.3301H200.412V41.4795ZM197.715 38.5257V41.2839H200.139V38.5257H197.715Z" fill="#0095E6"/>
<path d="M205.386 40.9118H203.312V38.8984H205.386V40.9118ZM203.592 39.0941V40.7162H205.119V39.0941H203.592Z" fill="#0095E6"/>
<path d="M216.066 40.4879H214.336V39.3203H216.066V40.4879ZM214.616 39.516V40.2923H215.799V39.516H214.616Z" fill="#0095E6"/>
<path d="M221.492 40.6019H219.762V39.207H221.492V40.6019ZM220.042 39.4027V40.4062H221.225V39.4027H220.042Z" fill="#0095E6"/>
<path d="M21.73 45.1205H18.0469V42.457H21.73V45.1205ZM18.3204 42.6464V44.9185H21.4565V42.6464H18.3204Z" fill="#0095E6"/>
<path d="M32.1113 44.3699H29.3633V43.2148H32.1113V44.3699ZM29.6432 43.4042V44.1679H31.8442V43.4042H29.6432Z" fill="#0095E6"/>
<path d="M37.2836 44.1357H35.0508V43.4414H37.2836V44.1357ZM35.3243 43.6308V43.9337H37.01V43.6308H35.3243Z" fill="#0095E6"/>
<path d="M42.3499 44.6484H40.8359V42.9316H42.3499V44.6484ZM41.1158 43.121V44.4464H42.0827V43.121H41.1158Z" fill="#0095E6"/>
<path d="M53.5384 44.8487H51.3438V42.7344H53.5384V44.8487ZM51.6173 42.9237V44.6468H53.2648V42.9237H51.6173Z" fill="#0095E6"/>
<path d="M58.6121 44.0536H57.1172V43.5234H58.6121V44.0536ZM57.3844 43.7128V43.8516H58.3322V43.7128H57.3844Z" fill="#0095E6"/>
<path d="M65.6424 45.1587H60.9414V42.4258H65.6424V45.1587ZM61.2213 42.6214V44.963H65.3752V42.6214H61.2213Z" fill="#0095E6"/>
<path d="M69.2636 44.1043H68.1758V43.4668H69.2636V44.1043ZM68.4493 43.6625V43.9086H68.99V43.6625H68.4493Z" fill="#0095E6"/>
<path d="M74.5437 44.6421H73.7422V42.9316H74.5437V44.6421ZM74.0094 43.1273V44.4464H74.2638V43.1273H74.0094Z" fill="#0095E6"/>
<path d="M91.1393 44.7237H89.6953V42.8555H91.1393V44.7237ZM89.9625 43.0511V44.528H90.8594V43.0511H89.9625Z" fill="#0095E6"/>
<path d="M96.2145 44.0034H95.4766V43.5742H96.2145V44.0034ZM95.7437 43.7636V43.8014H95.9346V43.7636H95.7437Z" fill="#0095E6"/>
<path d="M101.802 44.3699H100.746V43.2148H101.802V44.3699ZM101.02 43.4042V44.1679H101.529V43.4042H101.02Z" fill="#0095E6"/>
<path d="M107.5 44.1608H105.891V43.416H107.5V44.1608ZM106.164 43.6054V43.9588H107.226V43.6054H106.164Z" fill="#0095E6"/>
<path d="M112.773 44.4655H111.469V43.1211H112.773V44.4655ZM111.742 43.3104V44.2635H112.499V43.3104H111.742Z" fill="#0095E6"/>
<path d="M117.963 44.0802H117.117V43.5059H117.963V44.0802ZM117.391 43.7015V43.8846H117.69V43.7015H117.391Z" fill="#0095E6"/>
<path d="M125.471 45.1659H120.465V42.4141H125.471V45.1659ZM120.738 42.6097V44.9702H125.198V42.6097H120.738Z" fill="#0095E6"/>
<path d="M144.931 44.1429H144.422V43.4297H144.931V44.1429Z" fill="#0095E6"/>
<path d="M151.579 44.085H148.621V43.498H151.579V44.085ZM148.895 43.6937V43.8894H151.306V43.6937H148.895Z" fill="#0095E6"/>
<path d="M166.946 44.199H165.801V43.3848H166.946V44.199ZM166.081 43.5741V43.997H166.672V43.5741H166.081Z" fill="#0095E6"/>
<path d="M177.517 43.9479H176.926V43.6387H177.517V43.9479Z" fill="#0095E6"/>
<path d="M183.251 44.0667H182.055V43.5176H183.251V44.0667ZM182.328 43.7132V43.871H182.977V43.7132H182.328Z" fill="#0095E6"/>
<path d="M194.502 44.4085H192.492V43.1777H194.502V44.4085ZM192.772 43.3671V44.2065H194.229V43.3671H192.772Z" fill="#0095E6"/>
<path d="M211.634 44.8811H207.926V42.6973H211.634V44.8811ZM208.206 42.8866V44.6791H211.367V42.8866H208.206Z" fill="#0095E6"/>
<path d="M227.987 44.5157H224.113V43.0703H227.987V44.5157ZM224.387 43.2597V44.3137H227.714V43.2597H224.387Z" fill="#0095E6"/>
<path d="M4.214 49.4702H3.01172V45.8789H4.214V49.4702ZM3.28525 46.0746V49.2745H3.94046V46.0746H3.28525Z" fill="#0095E6"/>
<path d="M10.1287 48.075H7.95312V47.2734H10.1287V48.075ZM8.2203 47.4691V47.8793H9.84878V47.4691H8.2203Z" fill="#0095E6"/>
<path d="M26.8013 48.2966H23.8242V47.0469H26.8013V48.2966ZM24.0914 47.2362V48.0946H26.5214V47.2362H24.0914Z" fill="#0095E6"/>
<path d="M31.9225 49.0275H29.5625V46.3262H31.9225V49.0275ZM29.836 46.5155V48.8255H31.649V46.5155H29.836Z" fill="#0095E6"/>
<path d="M59.4295 48.2073H56.3125V47.1406H59.4295V48.2073ZM56.5797 47.33V48.0053H59.1496V47.33H56.5797Z" fill="#0095E6"/>
<path d="M69.5882 48.5172H67.8516V46.832H69.5882V48.5172ZM68.1251 47.0277V48.3216H69.3147V47.0277H68.1251Z" fill="#0095E6"/>
<path d="M74.3397 48.0682H73.9453V47.2793H74.3397V47.9673V48.0682Z" fill="#0095E6"/>
<path d="M80.2157 48.0368H78.918V47.3047H80.2157V48.0368ZM79.1915 47.494V47.8349H79.9421V47.494H79.1915Z" fill="#0095E6"/>
<path d="M86.1279 48.1184H83.8633V47.2285H86.1279V48.1184ZM84.1305 47.4242V47.9228H85.848V47.4242H84.1305Z" fill="#0095E6"/>
<path d="M103.849 48.5858H98.6836V46.7617H103.849V48.5858ZM98.9635 46.9574V48.3901H103.582V46.9574H98.9635Z" fill="#0095E6"/>
<path d="M106.958 47.948H106.43V47.3926H106.958V47.948Z" fill="#0095E6"/>
<path d="M114.122 49.3311H110.121V46.0176H114.122V49.3311ZM110.395 46.2069V49.1292H113.842V46.2069H110.395Z" fill="#0095E6"/>
<path d="M124.351 48.1189H121.59V47.2227H124.351V48.1189ZM121.863 47.4183V47.9232H124.077V47.4183H121.863Z" fill="#0095E6"/>
<path d="M128.918 48.2642H127.875V47.084H128.918V48.2642ZM128.142 47.2796V48.0686H128.638V47.2796H128.142Z" fill="#0095E6"/>
<path d="M141.614 48.9714H136.875V46.3711H141.614V48.9714ZM137.149 46.5604V48.7695H141.341V46.5604H137.149Z" fill="#0095E6"/>
<path d="M145.101 48.2396H144.242V47.1035H145.101V48.2396ZM144.522 47.2929V48.0376H144.834V47.2929H144.522Z" fill="#0095E6"/>
<path d="M177.988 48.5041H176.461V46.8379H177.988V48.5041ZM176.734 47.0336V48.3085H177.714V47.0336H176.734Z" fill="#0095E6"/>
<path d="M183.694 48.1117H181.602V47.2344H183.694V48.1117ZM181.869 47.43V47.916H183.415V47.43H181.869Z" fill="#0095E6"/>
<path d="M188.472 48.7316H187.684V46.6172H188.472V48.7316ZM187.957 46.8128V48.5359H188.199V46.8128H187.957Z" fill="#0095E6"/>
<path d="M199.942 48.2396H197.906V47.1035H199.942V48.2396ZM198.18 47.2992V48.0439H199.662V47.2992H198.18Z" fill="#0095E6"/>
<path d="M209.973 47.9683H209.578V47.375H209.973V47.8736V47.9683Z" fill="#0095E6"/>
<path d="M221.005 48.4288H220.254V46.9141H221.005V48.4288ZM220.527 47.1034V48.2269H220.731V47.1034H220.527Z" fill="#0095E6"/>
<path d="M4.88189 52.6056H2.34375V50.5039H4.88189V52.6056ZM2.61728 50.6932V52.4037H4.60836V50.6932H2.61728Z" fill="#0095E6"/>
<path d="M14.9037 52.3029H14.0195V50.8008H14.9037V52.3029ZM14.2867 50.9964V52.1073H14.6239V50.9964H14.2867Z" fill="#0095E6"/>
<path d="M21.526 51.9949H18.25V51.1113H21.526V51.9949ZM18.5299 51.307V51.7993H21.2589V51.307H18.5299Z" fill="#0095E6"/>
<path d="M36.5471 51.7734H35.7773V51.3379H36.5471V51.7734ZM36.0572 51.5272V51.5714H36.2799V51.5272H36.0572Z" fill="#0095E6"/>
<path d="M47.303 51.9945H46.7305V51.1172H47.303V51.9945ZM47.004 51.3065V51.7925H47.0294V51.3065H47.004Z" fill="#0095E6"/>
<path d="M53.1888 51.8419H51.6875V51.2676H53.1888V51.8419ZM51.961 51.4569V51.64H52.9152V51.4569H51.961Z" fill="#0095E6"/>
<path d="M58.59 52.3483H57.1523V50.7578H58.59V52.3483ZM57.4195 50.9535V52.1527H58.3101V50.9535H57.4195Z" fill="#0095E6"/>
<path d="M63.6387 51.9057H62.9453V51.2051H63.6387V51.9057ZM63.2188 51.3944V51.7037H63.3652V51.3944H63.2188Z" fill="#0095E6"/>
<path d="M81.5652 52.8721H77.5703V50.2402H81.5652V52.8721ZM77.8439 50.4359V52.6765H81.2917V50.4359H77.8439Z" fill="#0095E6"/>
<path d="M85.9288 52.0567H84.0586V51.0469H85.9288V52.0567ZM84.3321 51.2425V51.8611H85.6553V51.2425H84.3321Z" fill="#0095E6"/>
<path d="M102.164 51.8941H100.383V51.2188H102.164V51.8941ZM100.656 51.4144V51.6984H101.89V51.4144H100.656Z" fill="#0095E6"/>
<path d="M107.448 52.0818H105.934V51.0215H107.448V52.0818ZM106.207 51.2171V51.8862H107.174V51.2171H106.207Z" fill="#0095E6"/>
<path d="M113.142 52.3918H111.094V50.7129H113.142V52.3918ZM111.367 50.9086V52.1961H112.869V50.9086H111.367Z" fill="#0095E6"/>
<path d="M123.933 51.8168H122.012V51.293H123.933V51.8168ZM122.279 51.4823V51.6149H123.653V51.4823H122.279Z" fill="#0095E6"/>
<path d="M130.317 53.2936H126.469V49.8223H130.317V53.2936ZM126.749 50.0116V53.0916H130.05V50.0116H126.749Z" fill="#0095E6"/>
<path d="M134.244 51.7666H133.398V51.3438H134.244V51.7666ZM133.678 51.5394V51.571H133.977V51.5394H133.678Z" fill="#0095E6"/>
<path d="M145.634 52.7447H143.707V50.3652H145.634V52.7447ZM143.987 50.5546V52.5427H145.367V50.5546H143.987Z" fill="#0095E6"/>
<path d="M151.426 51.7917H148.773V51.3184H151.426V51.7917ZM149.053 51.514V51.5961H151.159V51.514H149.053Z" fill="#0095E6"/>
<path d="M168.003 52.6882H164.746V50.416H168.003V52.6882ZM165.02 50.6117V52.4925H167.73V50.6117H165.02Z" fill="#0095E6"/>
<path d="M172.594 53.0232H171.004V50.082H172.594V53.0232ZM171.277 50.2714V52.8212H172.321V50.2714H171.277Z" fill="#0095E6"/>
<path d="M177.842 51.7029H176.602V51.4062H177.842V51.7029Z" fill="#0095E6"/>
<path d="M189.607 53.0164H186.547V50.0879H189.607V53.0164ZM186.82 50.2835V52.8145H189.333V50.2835H186.82Z" fill="#0095E6"/>
<path d="M200.164 52.1842H197.684V50.9219H200.164V52.1842ZM197.963 51.1175V51.9885H199.897V51.1175H197.963Z" fill="#0095E6"/>
<path d="M205.748 52.0881H202.949V51.0215H205.748V52.0881ZM203.229 51.2108V51.8862H205.481V51.2108H203.229Z" fill="#0095E6"/>
<path d="M215.519 52.1456H214.883V50.959H215.519V52.1456ZM215.163 51.1546V51.9499H215.252V51.1546H215.163Z" fill="#0095E6"/>
<path d="M221.96 53.3458H219.301V49.7734H221.96V53.3458ZM219.581 49.9628V53.1438H221.693V49.9628H219.581Z" fill="#0095E6"/>
<path d="M227.755 51.9371H224.352V51.1797H227.755V51.9371ZM224.631 51.369V51.7351H227.488V51.369H224.631Z" fill="#0095E6"/>
<path d="M5.53361 55.7551H1.69141V55.1113H5.53361V55.7551ZM1.96494 55.307V55.5594H5.26007V55.307H1.96494Z" fill="#0095E6"/>
<path d="M9.81632 55.7562H8.25781V55.125H9.81632V55.7562ZM8.52499 55.3143V55.5542H9.53643V55.3143H8.52499Z" fill="#0095E6"/>
<path d="M16.599 56.4952H12.3242V54.3809H16.599V56.4952ZM12.5978 54.5702V56.2933H16.3191V54.5702H12.5978Z" fill="#0095E6"/>
<path d="M20.2888 55.8064H19.5V55.0742H20.2888V55.8064ZM19.7735 55.2636V55.6044H20.0153V55.2636H19.7735Z" fill="#0095E6"/>
<path d="M31.9348 56.292H29.543V54.5879H31.9348V56.292ZM29.8165 54.7772V56.09H31.6613V54.7772H29.8165Z" fill="#0095E6"/>
<path d="M36.9104 55.787H35.4219V55.0801H36.9104V55.787ZM35.7018 55.2757V55.5913H36.6432V55.2757H35.7018Z" fill="#0095E6"/>
<path d="M53.4663 55.9825H51.418V54.8906H53.4663V55.9825ZM51.6915 55.0863V55.7869H53.1928V55.0863H51.6915Z" fill="#0095E6"/>
<path d="M64.0991 55.6542H62.4961V55.2188H64.0991V55.6542ZM62.7633 55.4081V55.4523H63.8192V55.4081H62.7633Z" fill="#0095E6"/>
<path d="M70.6503 56.0458H66.7891V54.834H70.6503V56.0458ZM67.0562 55.0233V55.8438H70.3704V55.0233H67.0562Z" fill="#0095E6"/>
<path d="M75.091 56.3547H73.1953V54.5117H75.091V56.3547ZM73.4688 54.7074V56.159H74.8174V54.7074H73.4688Z" fill="#0095E6"/>
<path d="M80.0254 56.1722H79.1094V54.6953H80.0254V56.1722ZM79.3765 54.891V55.9766H79.7455V54.891H79.3765Z" fill="#0095E6"/>
<path d="M91.0883 55.7252H89.7461V55.1445H91.0883V55.7252ZM90.0196 55.3402V55.5295H90.8148V55.3402H90.0196Z" fill="#0095E6"/>
<path d="M97.0849 56.0969H94.5977V54.7715H97.0849V56.0969ZM94.8712 54.9671V55.9013H96.8114V54.9671H94.8712Z" fill="#0095E6"/>
<path d="M108.748 55.8566H104.645V55.0234H108.748V55.8566ZM104.918 55.2128V55.6546H108.474V55.2128H104.918Z" fill="#0095E6"/>
<path d="M113.314 56.9099H110.922V53.9688H113.314V56.9099ZM111.189 54.1581V56.708H113.034V54.1581H111.189Z" fill="#0095E6"/>
<path d="M123.168 55.8H122.773V55.0742H123.168V55.7054V55.8Z" fill="#0095E6"/>
<path d="M151.309 56.3494H148.879V54.5254H151.309V56.3494ZM149.159 54.7147V56.1475H151.042V54.7147H149.159Z" fill="#0095E6"/>
<path d="M158.061 56.053H152.984V54.8223H158.061V56.053ZM153.258 55.0179V55.8574H157.787V55.0179H153.258Z" fill="#0095E6"/>
<path d="M184.464 55.8131H180.832V55.0684H184.464V55.8131ZM181.112 55.2577V55.6112H184.197V55.2577H181.112Z" fill="#0095E6"/>
<path d="M189.338 56.3929H186.812V54.4805H189.338V56.3929ZM187.086 54.6698V56.1909H189.064V54.6698H187.086Z" fill="#0095E6"/>
<path d="M194.566 55.9709H192.441V54.9043H194.566V55.9709ZM192.715 55.0936V55.769H194.293V55.0936H192.715Z" fill="#0095E6"/>
<path d="M199.816 56.2287H198.035V54.6445H199.816V56.2287ZM198.315 54.8402V56.0331H199.549V54.8402H198.315Z" fill="#0095E6"/>
<path d="M206.32 56.9606H202.383V53.9121H206.32V56.9606ZM202.656 54.1015V56.7586H206.041V54.1015H202.656Z" fill="#0095E6"/>
<path d="M215.597 55.7247H214.809V55.1504H215.597V55.7247ZM215.082 55.3397V55.5228H215.324V55.3397H215.082Z" fill="#0095E6"/>
<path d="M221.626 56.1597H219.629V54.7207H221.626V56.1597ZM219.902 54.91V55.9578H221.353V54.91H219.902Z" fill="#0095E6"/>
</g>
</svg>
